<mxfile host="app.diagrams.net" modified="2023-12-13T07:35:34.230Z" agent="Mozilla/5.0 (Windows NT 10.0; Win64; x64) AppleWebKit/537.36 (KHTML, like Gecko) Chrome/119.0.0.0 Safari/537.36" etag="2uD-VUflEGSNnyiPna76" version="21.7.2" type="github">
  <diagram name="画布1" id="画布1">
    <mxGraphModel dx="1434" dy="758" grid="1" gridSize="10" guides="1" tooltips="1" connect="1" arrows="1" fold="1" page="1" pageScale="1" pageWidth="827" pageHeight="1169" math="0" shadow="0">
      <root>
        <mxCell id="0" />
        <mxCell id="1" parent="0" />
        <UserObject label="" tags="背景" id="2">
          <mxCell style="vsdxID=1;fillColor=none;gradientColor=none;points=[];labelBackgroundColor=none;rounded=0;strokeColor=none;html=1;whiteSpace=wrap;" parent="1" vertex="1">
            <mxGeometry x="845" y="318" width="52" height="832" as="geometry" />
          </mxCell>
        </UserObject>
        <mxCell id="3" style="vsdxID=2;fillColor=#e6ffcc;gradientColor=none;fillOpacity=80;strokeOpacity=80;shape=stencil(lVLLEoMgDPwargyGvjxb/Q9nxMrUikVt7d8XCq2ADjO9ZZMNuwlBNBuasmcIyDBKcWVPXo0NomcEwLuGST6qCNEc0awWkl2kmLrK4L7UTB3dxEO/MJs+ojuAvCzCu9MnURjufSorzU18sg9nMPCID4klgEuwb7W8c3RTwDT1tSPCCYlLL3XYHsQXX+jWTIr38I/8L/E14I4TeNp04Oxqkx1f/Eo+mH41jy8e/3MVLMdS87Y1t+bWw+NSKXOYNH8D);strokeColor=#e6ffcc;spacingTop=-3;spacingBottom=-3;spacingLeft=-3;spacingRight=-3;points=[];labelBackgroundColor=none;rounded=0;html=1;whiteSpace=wrap;" parent="2" vertex="1">
          <mxGeometry width="52" height="832" as="geometry" />
        </mxCell>
        <mxCell id="4" value="&lt;div style=&quot;font-size: 1px&quot;&gt;&lt;p style=&quot;text-align:center;margin-left:0;margin-right:0;margin-top:0px;margin-bottom:0px;text-indent:0;vertical-align:middle;direction:ltr;&quot;&gt;&lt;font style=&quot;font-size:25px;font-family:0;color:#000000;direction:ltr;letter-spacing:0px;line-height:120%;opacity:0.8&quot;&gt;统一标准体系&lt;/font&gt;&lt;/p&gt;&lt;/div&gt;" style="verticalAlign=middle;align=center;overflow=width;vsdxID=3;fillColor=none;gradientColor=none;strokeOpacity=80;shape=stencil(nZBLDoAgDAVP0z3SIyjeg0SURgWD+Lu9EGL8xBW7N828Ji1gOWs5KeBs9s72aqPGa8AKOCejlSMfEqAALFvrVOfsYprEk4xmTKNd44Y99VhscHY8qU7iQOYhFixbvfhXzlZfYgj3hQG+54dReh2KEw==);strokeColor=none;strokeWidth=0;spacingTop=-3;spacingBottom=-3;spacingLeft=-3;spacingRight=-3;points=[];labelBackgroundColor=none;rounded=0;html=1;whiteSpace=wrap;" parent="2" vertex="1">
          <mxGeometry x="10" y="122" width="31" height="522" as="geometry" />
        </mxCell>
        <UserObject label="" tags="Background" id="5">
          <mxCell style="vsdxID=4;fillColor=#ffffcc;gradientColor=none;fillOpacity=50;shape=stencil(lVLLEoMgDPwargwmfXm2+h/OiJWpFYva2r+vFFpBHWZ6yyYbdhNCMOmqvOUEWNcreeVPUfQVwTMBEE3FleiniGBKMCml4hclh6YwuM01U0c3+dAvjKaP6Q5gL4vo7vRJZIZ7H/JCcyOf7MMRDETK0BLAJdi3atE4uvGBxkdfOyAcsbD0XIftQXzxmW7NxHQP/8j/El8D7jgLT5sOnF1tssOLX8kvpl/N44uH/3wK5mMpRV2bW3Pry+OaUuYwMX0D);strokeColor=#000000;spacingTop=-3;spacingBottom=-3;spacingLeft=-3;spacingRight=-3;points=[];labelBackgroundColor=none;rounded=0;html=1;whiteSpace=wrap;" parent="1" vertex="1">
            <mxGeometry x="908" y="318" width="132" height="832" as="geometry" />
          </mxCell>
        </UserObject>
        <UserObject label="&lt;div style=&quot;font-size: 1px&quot;&gt;&lt;p style=&quot;text-align:center;margin-left:0;margin-right:0;margin-top:0px;margin-bottom:0px;text-indent:0;vertical-align:middle;direction:ltr;&quot;&gt;&lt;font style=&quot;font-size:18px;font-family:0;color:#000000;direction:ltr;letter-spacing:0px;line-height:120%;opacity:1&quot;&gt;&lt;b&gt;其他内部子系统&lt;/b&gt;&lt;/font&gt;&lt;/p&gt;&lt;/div&gt;" tags="Background" id="6">
          <mxCell style="verticalAlign=middle;align=center;overflow=width;vsdxID=5;fillColor=none;gradientColor=none;shape=stencil(nZBLDoAgDAVP0z3SIyjeg0SURgWD+Lu9EGL8xBW7N828Ji1gOWs5KeBs9s72aqPGa8AKOCejlSMfEqAALFvrVOfsYprEk4xmTKNd44Y99VhscHY8qU7iQOYhFixbvfhXzlZfYgj3hQG+54dReh2KEw==);strokeColor=none;strokeWidth=0;spacingTop=-3;spacingBottom=-3;spacingLeft=-3;spacingRight=-3;points=[];labelBackgroundColor=none;rounded=0;html=1;whiteSpace=wrap;" parent="1" vertex="1">
            <mxGeometry x="906" y="350" width="137" height="30" as="geometry" />
          </mxCell>
        </UserObject>
        <UserObject label="&lt;div style=&quot;font-size: 1px&quot;&gt;&lt;p style=&quot;text-align:center;margin-left:0;margin-right:0;margin-top:0px;margin-bottom:0px;text-indent:0;vertical-align:middle;direction:ltr;&quot;&gt;&lt;font style=&quot;font-size:14px;font-family:0;color:#000000;direction:ltr;letter-spacing:0px;line-height:120%;opacity:1&quot;&gt;外网中台&lt;br/&gt;&lt;/font&gt;&lt;font style=&quot;font-size:14px;font-family:0;color:#000000;direction:ltr;letter-spacing:0px;line-height:120%;opacity:1&quot;&gt;子系统&lt;/font&gt;&lt;/p&gt;&lt;/div&gt;" tags="Background" id="7">
          <mxCell style="verticalAlign=middle;align=center;overflow=width;vsdxID=6;fillColor=#FFFFFF;gradientColor=none;shape=stencil(lZLRDoMgDEW/pu9YzBKfnfsPE3GQOXCo0/39JHUqzJD41tvecigUeN7JshWArOuteYhRVb0EfgVEpaWwqp8j4AXwvDZW3K0ZdEW6LZ3TRU/zdidM1MdcB7IPqYTkjZyvoaycM/GtvpyQZLpUcV9dDmqU3iGzi8eMIRMWh251PBrA527m5R6nyGvix17HCO5yyE7Bf+YT7/wHDkbOItjY787BthS1ahraqX09XKI5RQvIiy8=);strokeColor=#000000;spacingTop=-3;spacingBottom=-3;spacingLeft=-3;spacingRight=-3;points=[];labelBackgroundColor=none;rounded=0;html=1;whiteSpace=wrap;" parent="1" vertex="1">
            <mxGeometry x="922" y="454" width="100" height="40" as="geometry" />
          </mxCell>
        </UserObject>
        <UserObject label="&lt;div style=&quot;font-size: 1px&quot;&gt;&lt;p style=&quot;text-align:center;margin-left:0;margin-right:0;margin-top:0px;margin-bottom:0px;text-indent:0;vertical-align:middle;direction:ltr;&quot;&gt;&lt;font style=&quot;font-size:14px;font-family:0;color:#000000;direction:ltr;letter-spacing:0px;line-height:120%;opacity:1&quot;&gt;大数据平台&lt;br/&gt;&lt;/font&gt;&lt;font style=&quot;font-size:14px;font-family:0;color:#000000;direction:ltr;letter-spacing:0px;line-height:120%;opacity:1&quot;&gt;DAAS服务&lt;/font&gt;&lt;/p&gt;&lt;/div&gt;" tags="Background" id="8">
          <mxCell style="verticalAlign=middle;align=center;overflow=width;vsdxID=7;fillColor=#FFFFFF;gradientColor=none;shape=stencil(lZLRDoMgDEW/pu9YzBKfnfsPE3GQOXCo0/39JHUqzJD41tvecigUeN7JshWArOuteYhRVb0EfgVEpaWwqp8j4AXwvDZW3K0ZdEW6LZ3TRU/zdidM1MdcB7IPqYTkjZyvoaycM/GtvpyQZLpUcV9dDmqU3iGzi8eMIRMWh251PBrA527m5R6nyGvix17HCO5yyE7Bf+YT7/wHDkbOItjY787BthS1ahraqX09XKI5RQvIiy8=);strokeColor=#000000;spacingTop=-3;spacingBottom=-3;spacingLeft=-3;spacingRight=-3;points=[];labelBackgroundColor=none;rounded=0;html=1;whiteSpace=wrap;" parent="1" vertex="1">
            <mxGeometry x="922" y="1049" width="100" height="40" as="geometry" />
          </mxCell>
        </UserObject>
        <UserObject label="&lt;div style=&quot;font-size: 1px&quot;&gt;&lt;p style=&quot;text-align:center;margin-left:0;margin-right:0;margin-top:0px;margin-bottom:0px;text-indent:0;vertical-align:middle;direction:ltr;&quot;&gt;&lt;font style=&quot;font-size:14px;font-family:0;color:#000000;direction:ltr;letter-spacing:0px;line-height:120%;opacity:1&quot;&gt;内网中台&lt;br/&gt;&lt;/font&gt;&lt;font style=&quot;font-size:14px;font-family:0;color:#000000;direction:ltr;letter-spacing:0px;line-height:120%;opacity:1&quot;&gt;子系统&lt;/font&gt;&lt;/p&gt;&lt;/div&gt;" tags="Background" id="9">
          <mxCell style="verticalAlign=middle;align=center;overflow=width;vsdxID=8;fillColor=#FFFFFF;gradientColor=none;shape=stencil(lZLRDoMgDEW/pu9YzBKfnfsPE3GQOXCo0/39JHUqzJD41tvecigUeN7JshWArOuteYhRVb0EfgVEpaWwqp8j4AXwvDZW3K0ZdEW6LZ3TRU/zdidM1MdcB7IPqYTkjZyvoaycM/GtvpyQZLpUcV9dDmqU3iGzi8eMIRMWh251PBrA527m5R6nyGvix17HCO5yyE7Bf+YT7/wHDkbOItjY787BthS1ahraqX09XKI5RQvIiy8=);strokeColor=#000000;spacingTop=-3;spacingBottom=-3;spacingLeft=-3;spacingRight=-3;points=[];labelBackgroundColor=none;rounded=0;html=1;whiteSpace=wrap;" parent="1" vertex="1">
            <mxGeometry x="922" y="750" width="100" height="40" as="geometry" />
          </mxCell>
        </UserObject>
        <UserObject label="" tags="Background" id="10">
          <mxCell style="vsdxID=9;fillColor=#e5e5e5;gradientColor=none;shape=stencil(lVLRDoMgDPwaXgnSTeOzc/9hIk4yJw5xc38/GWwCGpK99dordy1FUIxtNTBEyaikuLInr1WL4IQo5X3LJFdLhKBEUDRCsosUU18bPFSaqaObeOgXZtNHdAclL4NSnGafxNlw71NVa27ik304UwvxESyBugT7Vsd7RzfP8SHztElEOCFx6bVO9wfxxVe6NQMY4B/5X+JrwB0n8LTrwNnVLju++I18MP1mnkA8+udLsB5Lw7vO3JpbD49rSZnDhPIN);strokeColor=#000000;spacingTop=-3;spacingBottom=-3;spacingLeft=-3;spacingRight=-3;points=[];labelBackgroundColor=none;rounded=0;html=1;whiteSpace=wrap;" parent="1" vertex="1">
            <mxGeometry x="80" y="318" width="754" height="59" as="geometry" />
          </mxCell>
        </UserObject>
        <UserObject label="&lt;div style=&quot;font-size: 1px&quot;&gt;&lt;p style=&quot;text-align:center;margin-left:0;margin-right:0;margin-top:0px;margin-bottom:0px;text-indent:0;vertical-align:middle;direction:ltr;&quot;&gt;&lt;font style=&quot;font-size:18px;font-family:0;color:#000000;direction:ltr;letter-spacing:0px;line-height:120%;opacity:1&quot;&gt;省级医保信息&lt;/font&gt;&lt;/p&gt;&lt;/div&gt;" tags="Background" id="11">
          <mxCell style="verticalAlign=middle;align=center;overflow=width;vsdxID=10;fillColor=#FFFFFF;gradientColor=none;shape=stencil(lZLbDoIwDIafZrfLaA2Ga8T3IGHIIjKcoPj2MouyTbLEux6+7m+7MsxvTdlLBuI2GH2WD1UNDcMDA1BdI40aZothwTCvtZEno8euIr8vLWmti77bFyaqE7YCxJO8jGPyDhyJvY5lZdnEh313AnKBY7oA4ALLW63qHN1sz9Odpy0iwomIS6952B7EF1/xhRY8zf6R/wY+DbjjBD1tduDsapOOL/5HPpw+nMcXj//5bKzHUqu2pVtz8+FxzSE6TCxe);strokeColor=#000000;spacingTop=-3;spacingBottom=-3;spacingLeft=-3;spacingRight=-3;points=[];labelBackgroundColor=none;rounded=0;html=1;whiteSpace=wrap;" parent="1" vertex="1">
            <mxGeometry x="97" y="327" width="169" height="42" as="geometry" />
          </mxCell>
        </UserObject>
        <UserObject label="&lt;div style=&quot;font-size: 1px&quot;&gt;&lt;p style=&quot;text-align:center;margin-left:0;margin-right:0;margin-top:0px;margin-bottom:0px;text-indent:0;vertical-align:middle;direction:ltr;&quot;&gt;&lt;font style=&quot;font-size:18px;font-family:0;color:#000000;direction:ltr;letter-spacing:0px;line-height:120%;opacity:1&quot;&gt;统筹区医保&lt;/font&gt;&lt;font style=&quot;font-size:NaNpx;font-family:0;color:#000000;direction:ltr;letter-spacing:0px;line-height:120%;opacity:1&quot;&gt;信息&lt;/font&gt;&lt;/p&gt;&lt;/div&gt;" tags="Background" id="12">
          <mxCell style="verticalAlign=middle;align=center;overflow=width;vsdxID=11;fillColor=#FFFFFF;gradientColor=none;shape=stencil(lZLbDoMgDIafhlsCJZnh2rn3MBEnmROHurm3n6xuAjMku+vhK39bSkQ+NGWvCLBhtOaiHroaGyKOBEB3jbJ6XCwiCiLy2lh1tmbqKvT70pHOupq7e2HGOuYqgD3Rk1Twd+CE7G0qK8fyEA7dGdAFCnIFwAfWt1rdeboyoxkPtFlCmLO09JaH/UFC8Q1faUYP8h/5b+DTgD9O1NNuB96udun04n/k4+njeULx9J8vxnYstW5bvDU/Hx/XEsLDFMUL);strokeColor=#000000;spacingTop=-3;spacingBottom=-3;spacingLeft=-3;spacingRight=-3;points=[];labelBackgroundColor=none;rounded=0;html=1;whiteSpace=wrap;" parent="1" vertex="1">
            <mxGeometry x="291" y="327" width="174" height="42" as="geometry" />
          </mxCell>
        </UserObject>
        <UserObject label="&lt;div style=&quot;font-size: 1px&quot;&gt;&lt;p style=&quot;text-align:center;margin-left:0;margin-right:0;margin-top:0px;margin-bottom:0px;text-indent:0;vertical-align:middle;direction:ltr;&quot;&gt;&lt;font style=&quot;font-size:18px;font-family:0;color:#000000;direction:ltr;letter-spacing:0px;line-height:120%;opacity:1&quot;&gt;医疗机构&lt;/font&gt;&lt;/p&gt;&lt;/div&gt;" tags="Background" id="13">
          <mxCell style="verticalAlign=middle;align=center;overflow=width;vsdxID=12;fillColor=#FFFFFF;gradientColor=none;shape=stencil(lZLbDoIwDIafZrfL6BDDNeJ7kDBkERmOg/j2MouyTbLEux6+7m+7Ep71ddEJAqwftLqKhyyHmvATAZBtLbQcFovwnPCsUlpctBrbEv2uMKSxbmoyL8xYx0wFsCd6KeXRO3BG9j4WpWEjF3bdGdAFGscrADawvtXI1tJNj/SQONosIByxsPSWh/1BXPENX2lGk/Qf+W/g04A9jtfTbgfWrnbp8OJ/5P3p/Xlc8fCfL8Z2LJVsGrw1O+8f1xLCw+T5Cw==);strokeColor=#000000;spacingTop=-3;spacingBottom=-3;spacingLeft=-3;spacingRight=-3;points=[];labelBackgroundColor=none;rounded=0;html=1;whiteSpace=wrap;" parent="1" vertex="1">
            <mxGeometry x="484" y="327" width="163" height="42" as="geometry" />
          </mxCell>
        </UserObject>
        <UserObject label="" tags="Background" id="14">
          <mxCell style="vsdxID=13;fillColor=#cce5ff;gradientColor=none;fillOpacity=50;shape=stencil(lVLRDoMgDPwaXglS5+Kzc/9hIk4yJw5xc38/GWwCGpK99dordy1FUIxtNTBEyaikuLInr1WL4IQo5X3LJFdLhKBEUDRCsosUU18bPFSaqaObeOgXZtNHdAclL4MAQ/ZJnA33PlW15iY+2YcztRAfwBKoS7Bvdbx3dPMcp0dPm0SEExKXXut0fxBffKVbMxnO0n/kf4mvAXecwNOuA2dXu+z44jfywfSbeQLx6J8vwXosDe86c2tuPTyuJWUOE8o3);strokeColor=#000000;spacingTop=-3;spacingBottom=-3;spacingLeft=-3;spacingRight=-3;points=[];labelBackgroundColor=none;rounded=0;html=1;whiteSpace=wrap;" parent="1" vertex="1">
            <mxGeometry x="80" y="1032" width="755" height="118" as="geometry" />
          </mxCell>
        </UserObject>
        <UserObject label="&lt;div style=&quot;font-size: 1px&quot;&gt;&lt;p style=&quot;text-align:center;margin-left:0;margin-right:0;margin-top:0px;margin-bottom:0px;text-indent:0;vertical-align:middle;direction:ltr;&quot;&gt;&lt;font style=&quot;font-size:18px;font-family:0;color:#000000;direction:ltr;letter-spacing:0px;line-height:120%;opacity:1&quot;&gt;&lt;b&gt;机构与编码同步管理&lt;/b&gt;&lt;/font&gt;&lt;/p&gt;&lt;/div&gt;" tags="Background" id="15">
          <mxCell style="verticalAlign=middle;align=center;overflow=width;vsdxID=14;fillColor=none;gradientColor=none;shape=stencil(nZBLDoAgDAVP0z3SIyjeg0SURgWD+Lu9EGL8xBW7N828Ji1gOWs5KeBs9s72aqPGa8AKOCejlSMfEqAALFvrVOfsYprEk4xmTKNd44Y99VhscHY8qU7iQOYhFixbvfhXzlZfYgj3hQG+54dReh2KEw==);strokeColor=none;strokeWidth=0;spacingTop=-3;spacingBottom=-3;spacingLeft=-3;spacingRight=-3;points=[];labelBackgroundColor=none;rounded=0;html=1;whiteSpace=wrap;" parent="1" vertex="1">
            <mxGeometry x="335" y="1026" width="204" height="40" as="geometry" />
          </mxCell>
        </UserObject>
        <UserObject label="&lt;div style=&quot;font-size: 1px&quot;&gt;&lt;p style=&quot;text-align:center;margin-left:0;margin-right:0;margin-top:0px;margin-bottom:0px;text-indent:0;vertical-align:middle;direction:ltr;&quot;&gt;&lt;font style=&quot;font-size:14px;font-family:0;color:#000000;direction:ltr;letter-spacing:0px;line-height:120%;opacity:1&quot;&gt;医疗机构信息同步管理&lt;/font&gt;&lt;/p&gt;&lt;/div&gt;" tags="Background" id="16">
          <mxCell style="verticalAlign=middle;align=center;overflow=width;vsdxID=15;fillColor=#FFFFFF;gradientColor=none;shape=stencil(lVLLEoIwDPyaXjt9OAhnxP9ghiIdkWIpin8vNQgtIIy3bLLpZtMgHjdFWgvESGO0uoqnzEyB+AkxJqtCaGn6CPEE8ThXWly0aqsMcJ1apo1u6mFf6KCP2A5GXoAoxfz4yZyBfG/TzJKpz/Zhx4ZuHAUDgbmE4a1SVo5wFGJy8MTJhjAlO9Jjnf1w4qtPfMBhiAP+j/6Y+E7g+pkNtT7BtKxV9vbmF/Iz+ws/vvjOr/fBdC+5LEs4N7c+v68+BbfJkzc=);strokeColor=#000000;spacingTop=-3;spacingBottom=-3;spacingLeft=-3;spacingRight=-3;points=[];labelBackgroundColor=none;rounded=0;html=1;whiteSpace=wrap;" parent="1" vertex="1">
            <mxGeometry x="103" y="1105" width="204" height="35" as="geometry" />
          </mxCell>
        </UserObject>
        <UserObject label="&lt;div style=&quot;font-size: 1px&quot;&gt;&lt;p style=&quot;text-align:center;margin-left:0;margin-right:0;margin-top:0px;margin-bottom:0px;text-indent:0;vertical-align:middle;direction:ltr;&quot;&gt;&lt;font style=&quot;font-size:14px;font-family:0;color:#000000;direction:ltr;letter-spacing:0px;line-height:120%;opacity:1&quot;&gt;生产、配送企业信息&lt;/font&gt;&lt;font style=&quot;font-size:NaNpx;font-family:0;color:#000000;direction:ltr;letter-spacing:0px;line-height:120%;opacity:1&quot;&gt;同步管理&lt;/font&gt;&lt;/p&gt;&lt;/div&gt;" tags="Background" id="17">
          <mxCell style="verticalAlign=middle;align=center;overflow=width;vsdxID=16;fillColor=#FFFFFF;gradientColor=none;shape=stencil(lVLREoIgEPwaXhk4mgafzf7DGTCZTAy17O+TMAU1nd5u7/bY2+MQi+s8rSQCUjdGX+VTiSZH7IQAVJlLo5o+QixBLM60kRej21I4XKWWaaObftgXOtdHbAeQl0OUYgqfzNmR720qLJmG7BB2MHTj6DgQwCcMbxWq9IQjjskhECcbwpTsSI91+OEkVJ/4DnOOOf9Hf0x8J/D9zIZan2Ba1ip7e/ML+Zn9hZ9QfOfX+2C6l0wVhTs3vz6/rz7lbpMlbw==);strokeColor=#000000;spacingTop=-3;spacingBottom=-3;spacingLeft=-3;spacingRight=-3;points=[];labelBackgroundColor=none;rounded=0;html=1;whiteSpace=wrap;" parent="1" vertex="1">
            <mxGeometry x="103" y="1061" width="203" height="35" as="geometry" />
          </mxCell>
        </UserObject>
        <UserObject label="&lt;div style=&quot;font-size: 1px&quot;&gt;&lt;p style=&quot;text-align:center;margin-left:0;margin-right:0;margin-top:0px;margin-bottom:0px;text-indent:0;vertical-align:middle;direction:ltr;&quot;&gt;&lt;font style=&quot;font-size:14px;font-family:0;color:#000000;direction:ltr;letter-spacing:0px;line-height:120%;opacity:1&quot;&gt;药品和医用耗材编码&lt;/font&gt;&lt;font style=&quot;font-size:NaNpx;font-family:0;color:#000000;direction:ltr;letter-spacing:0px;line-height:120%;opacity:1&quot;&gt;同步管理&lt;/font&gt;&lt;/p&gt;&lt;/div&gt;" tags="Background" id="18">
          <mxCell style="verticalAlign=middle;align=center;overflow=width;vsdxID=17;fillColor=#FFFFFF;gradientColor=none;shape=stencil(lVLLEoIwDPyaXjt9OFjPiP/BDEU6IsXyEP9eahBaQBhv2WTTzaZBPKyyuJSIkao2+iafKqkzxM+IMVVk0qi6jxCPEA9TbeTV6KZIAJexZdrorlv7Qgd9xHYw8gJEKab8k7kA+dHEiSVTn+3Djg3dmAcDgbmE4a1cFY7wSeDg4ImTDWFKdqTHOvvhxFef+ICFwOL4j/6Y+E7g+pkNtT7BtKxV9vbmF/Iz+ws/vvjOr/fBdC+pynM4N7c+v68+BbfJozc=);strokeColor=#000000;spacingTop=-3;spacingBottom=-3;spacingLeft=-3;spacingRight=-3;points=[];labelBackgroundColor=none;rounded=0;html=1;whiteSpace=wrap;" parent="1" vertex="1">
            <mxGeometry x="322" y="1106" width="293" height="35" as="geometry" />
          </mxCell>
        </UserObject>
        <UserObject label="&lt;div style=&quot;font-size: 1px&quot;&gt;&lt;p style=&quot;text-align:center;margin-left:0;margin-right:0;margin-top:0px;margin-bottom:0px;text-indent:0;vertical-align:middle;direction:ltr;&quot;&gt;&lt;font style=&quot;font-size:14px;font-family:0;color:#000000;direction:ltr;letter-spacing:0px;line-height:120%;opacity:1&quot;&gt;产品政策属性管理&lt;/font&gt;&lt;/p&gt;&lt;/div&gt;" tags="Background" id="19">
          <mxCell style="verticalAlign=middle;align=center;overflow=width;vsdxID=18;fillColor=#FFFFFF;gradientColor=none;shape=stencil(lVJBEoIwDHxNr502PUDPiP9ghiIdkWIBxd9LDUoLiOMtm2y6SbpEJG2ZNYoAaztrzuqu864k4kAAdF0qq7sxIiIlIimMVSdr+jpH3GSO6aKLubkXBuxjrgPYAxHnlPFX5ojka5/ljsxDdggHQAgU+EQAnzC9VenaE5YRjWQgznaEOduXnuvwZZNQfeYjjmMq5T/6n8R7An+fxVCbE3jH2mTvX34lv1h/tU8o/uPXx2D2S6GrCu3m15f+GlPoTZE+AQ==);strokeColor=#000000;spacingTop=-3;spacingBottom=-3;spacingLeft=-3;spacingRight=-3;points=[];labelBackgroundColor=none;rounded=0;html=1;whiteSpace=wrap;" parent="1" vertex="1">
            <mxGeometry x="634" y="1105" width="181" height="36" as="geometry" />
          </mxCell>
        </UserObject>
        <UserObject label="" tags="Background" id="20">
          <mxCell style="vsdxID=19;fillColor=#e6ffcc;gradientColor=none;fillOpacity=60;shape=stencil(lVLRDoIwDPyavS7bShZ8RvwPEoYsIsMJin8vswgbEIxvvfa6u3YlkNzLrFFEsHtrzUU9dd6WBI5ECF2Xyup2iAikBJLCWHW2pqtzxE3mmC66mod7occ+5joEeyECCtEncULurctyx+UhOYS9QMgplyNB+ITxrUrXnu4hpnEUaLMdYc5+SE91sT1IKD7TRzOSSvmP/JT4GvDHWXjadjDvapO9v/iV/GL61Tyh+P6fD8F8LIWuKrw1v748riGFhwnpGw==);strokeColor=#000000;spacingTop=-3;spacingBottom=-3;spacingLeft=-3;spacingRight=-3;points=[];labelBackgroundColor=none;rounded=0;html=1;whiteSpace=wrap;" parent="1" vertex="1">
            <mxGeometry x="490" y="904" width="345" height="119" as="geometry" />
          </mxCell>
        </UserObject>
        <UserObject label="&lt;div style=&quot;font-size: 1px&quot;&gt;&lt;p style=&quot;text-align:center;margin-left:0;margin-right:0;margin-top:0px;margin-bottom:0px;text-indent:0;vertical-align:middle;direction:ltr;&quot;&gt;&lt;font style=&quot;font-size:18px;font-family:0;color:#000000;direction:ltr;letter-spacing:0px;line-height:120%;opacity:1&quot;&gt;&lt;b&gt;基本服务管理&lt;/b&gt;&lt;/font&gt;&lt;/p&gt;&lt;/div&gt;" tags="Background" id="21">
          <mxCell style="verticalAlign=middle;align=center;overflow=width;vsdxID=20;fillColor=none;gradientColor=none;shape=stencil(nZBLDoAgDAVP0z3SIyjeg0SURgWD+Lu9EGL8xBW7N828Ji1gOWs5KeBs9s72aqPGa8AKOCejlSMfEqAALFvrVOfsYprEk4xmTKNd44Y99VhscHY8qU7iQOYhFixbvfhXzlZfYgj3hQG+54dReh2KEw==);strokeColor=none;strokeWidth=0;spacingTop=-3;spacingBottom=-3;spacingLeft=-3;spacingRight=-3;points=[];labelBackgroundColor=none;rounded=0;html=1;whiteSpace=wrap;" parent="1" vertex="1">
            <mxGeometry x="576" y="899" width="160" height="40" as="geometry" />
          </mxCell>
        </UserObject>
        <UserObject label="&lt;div style=&quot;font-size: 1px&quot;&gt;&lt;p style=&quot;text-align:center;margin-left:0;margin-right:0;margin-top:0px;margin-bottom:0px;text-indent:0;vertical-align:middle;direction:ltr;&quot;&gt;&lt;font style=&quot;font-size:15px;font-family:0;color:#000000;direction:ltr;letter-spacing:0px;line-height:120%;opacity:1&quot;&gt;公共信息管理&lt;/font&gt;&lt;/p&gt;&lt;/div&gt;" tags="Background" id="22">
          <mxCell style="verticalAlign=middle;align=center;overflow=width;vsdxID=21;fillColor=#FFFFFF;gradientColor=none;shape=stencil(lZLRDoMgDEW/hleDJVn02bn/IBEnmQOHurm/n6xuAiMke+ttLz0USlg1dnwQBOg4GX0RD9lMHWFHAiBVJ4yc1oiwmrCq1UacjZ5Vg3rg1mmjq77bDgueo/YE0CeqHN7yhM7bzBvrzH2rLxdAyTIKmwFcw9arl8qhloesLDwyTYBzmkbvdYiN4aN3M+qi+If8TXzY7iTBdaJ455mi7vSb/+CDwf1hfHLqp9dgX5BW9j3ul1sPF2pN4TKy+gU=);strokeColor=#000000;spacingTop=-3;spacingBottom=-3;spacingLeft=-3;spacingRight=-3;points=[];labelBackgroundColor=none;rounded=0;html=1;whiteSpace=wrap;" parent="1" vertex="1">
            <mxGeometry x="505" y="937" width="132" height="33" as="geometry" />
          </mxCell>
        </UserObject>
        <UserObject label="&lt;div style=&quot;font-size: 1px&quot;&gt;&lt;p style=&quot;text-align:center;margin-left:0;margin-right:0;margin-top:0px;margin-bottom:0px;text-indent:0;vertical-align:middle;direction:ltr;&quot;&gt;&lt;font style=&quot;font-size:15px;font-family:0;color:#000000;direction:ltr;letter-spacing:0px;line-height:120%;opacity:1&quot;&gt;政策文件查询&lt;/font&gt;&lt;font style=&quot;font-size:NaNpx;font-family:0;color:#000000;direction:ltr;letter-spacing:0px;line-height:120%;opacity:1&quot;&gt;管理&lt;/font&gt;&lt;/p&gt;&lt;/div&gt;" tags="Background" id="23">
          <mxCell style="verticalAlign=middle;align=center;overflow=width;vsdxID=22;fillColor=#FFFFFF;gradientColor=none;shape=stencil(lVLLEoIwDPyaXjttioBnxP9ghiIdkSIPxb+XGpQWEMdbNtl0k3SJiJo8qSQB1rS1Psu7StuciAMBUGUua9UOERExEVGma3mqdVemiKvEME100TfzQo99zHQAeyDinIrglTki+dolqSFzl+3CHhAC3fkjAWzC+FahSkt4H1DPc8TZhjBn29JTHb5s4qpPfMRhSH3xj/4n8Z7A3mc21OoE1rFW2duXX8jP1l/s44r/+PUhmPySqaJAu9n1ub+GFHpTxE8=);strokeColor=#000000;spacingTop=-3;spacingBottom=-3;spacingLeft=-3;spacingRight=-3;points=[];labelBackgroundColor=none;rounded=0;html=1;whiteSpace=wrap;" parent="1" vertex="1">
            <mxGeometry x="654" y="938" width="156" height="35" as="geometry" />
          </mxCell>
        </UserObject>
        <UserObject label="&lt;div style=&quot;font-size: 1px&quot;&gt;&lt;p style=&quot;text-align:center;margin-left:0;margin-right:0;margin-top:0px;margin-bottom:0px;text-indent:0;vertical-align:middle;direction:ltr;&quot;&gt;&lt;font style=&quot;font-size:15px;font-family:0;color:#000000;direction:ltr;letter-spacing:0px;line-height:120%;opacity:1&quot;&gt;药品耗材编码查询&lt;/font&gt;&lt;/p&gt;&lt;/div&gt;" tags="Background" id="24">
          <mxCell style="verticalAlign=middle;align=center;overflow=width;vsdxID=23;fillColor=#FFFFFF;gradientColor=none;shape=stencil(lVLLEoIwDPyaXjttilrPiP/BDEU6IkUein8vNSgtII63bLLpJukSEdZZXCoCrG4qc1Z3nTQZEQcCoItMVbrpIyIiIsLUVOpUmbZIEJexZdroYm72hQ77mO0A9kDEOZXwyhyRfG3jxJK5z/ZhBwiBbrYDAVzC8FauC0d4v6NB4ImzFWHO1qXHOnzZxFcf+YilpFz+o/9JvCdw95kMtTiBc6xF9vrlZ/KT9Wf7+OI/fr0PRr+kOs/Rbm596q8+hd4U0RM=);strokeColor=#000000;spacingTop=-3;spacingBottom=-3;spacingLeft=-3;spacingRight=-3;points=[];labelBackgroundColor=none;rounded=0;html=1;whiteSpace=wrap;" parent="1" vertex="1">
            <mxGeometry x="654" y="981" width="156" height="33" as="geometry" />
          </mxCell>
        </UserObject>
        <UserObject label="&lt;div style=&quot;font-size: 1px&quot;&gt;&lt;p style=&quot;text-align:center;margin-left:0;margin-right:0;margin-top:0px;margin-bottom:0px;text-indent:0;vertical-align:middle;direction:ltr;&quot;&gt;&lt;font style=&quot;font-size:18px;font-family:0;color:#000000;direction:ltr;letter-spacing:0px;line-height:120%;opacity:0.5&quot;&gt;&lt;b&gt;业务调度中心&lt;/b&gt;&lt;/font&gt;&lt;/p&gt;&lt;/div&gt;" tags="Background" id="25">
          <mxCell style="verticalAlign=middle;align=center;overflow=width;vsdxID=24;fillColor=#ccccff;gradientColor=none;fillOpacity=50;shape=stencil(lVLREoIgEPwaXhk4asxns/9wRkwmE0Ms+/skLAGNmd5u7/bYu2MRy/q66DgC0mslL/whSl0jdkQAoq25EnqKEMsRyyqp+FnJoS0t7grDNNFV3s0Lo+0jpgPI0yIKGNJ35mTJt6EoDZn6bB+OMEO8ZzMBXML8ViNaRzhN8S7xxElEmJK49FKHH5v46gvf4kOCE/qP/jfxmcDdJxhqcwLnWJvs+OVX8sH6q30C8fivT8Hil0o0jbWbWw/9NaWsN1n+Ag==);strokeColor=#000000;spacingTop=-3;spacingBottom=-3;spacingLeft=-3;spacingRight=-3;points=[];labelBackgroundColor=none;rounded=0;html=1;whiteSpace=wrap;" parent="1" vertex="1">
            <mxGeometry x="81" y="861" width="755" height="32" as="geometry" />
          </mxCell>
        </UserObject>
        <UserObject label="" tags="Background" id="26">
          <mxCell style="vsdxID=25;fillColor=#ffe6cc;gradientColor=none;fillOpacity=50;shape=stencil(lVLRDoMgDPwaXgmWGMOzc/9hIk4yBw51c38/GWwCGpK99dordy1FtBy7euAIyDhpdeVP0UwdoicEIGTHtZjWCNEK0bJVml+0mmVj8VAbpolu6mFeWGwfMR1AXhYBBvZJnC33PteN4WYhOYQLOIhZ7gjgE9xbvZCeLmOY5IE2SQhnJC291eF4kFB8ozszBS6yf+R/ia8Bf5zI06EDb1eH7PTid/LR9Lt5IvHkn6/Bdiyt6Ht7a349Pq41ZQ+TVm8=);strokeColor=#000000;spacingTop=-3;spacingBottom=-3;spacingLeft=-3;spacingRight=-3;points=[];labelBackgroundColor=none;rounded=0;html=1;whiteSpace=wrap;" parent="1" vertex="1">
            <mxGeometry x="80" y="677" width="419" height="174" as="geometry" />
          </mxCell>
        </UserObject>
        <UserObject label="&lt;div style=&quot;font-size: 1px&quot;&gt;&lt;p style=&quot;text-align:center;margin-left:0;margin-right:0;margin-top:0px;margin-bottom:0px;text-indent:0;vertical-align:middle;direction:ltr;&quot;&gt;&lt;font style=&quot;font-size:18px;font-family:0;color:#000000;direction:ltr;letter-spacing:0px;line-height:120%;opacity:1&quot;&gt;&lt;b&gt;综合监管&lt;/b&gt;&lt;/font&gt;&lt;/p&gt;&lt;/div&gt;" tags="Background" id="27">
          <mxCell style="verticalAlign=middle;align=center;overflow=width;vsdxID=26;fillColor=none;gradientColor=none;shape=stencil(nZBLDoAgDAVP0z3SIyjeg0SURgWD+Lu9EGL8xBW7N828Ji1gOWs5KeBs9s72aqPGa8AKOCejlSMfEqAALFvrVOfsYprEk4xmTKNd44Y99VhscHY8qU7iQOYhFixbvfhXzlZfYgj3hQG+54dReh2KEw==);strokeColor=none;strokeWidth=0;spacingTop=-3;spacingBottom=-3;spacingLeft=-3;spacingRight=-3;points=[];labelBackgroundColor=none;rounded=0;html=1;whiteSpace=wrap;" parent="1" vertex="1">
            <mxGeometry x="150" y="673" width="160" height="40" as="geometry" />
          </mxCell>
        </UserObject>
        <UserObject label="&lt;div style=&quot;font-size: 1px&quot;&gt;&lt;p style=&quot;text-align:center;margin-left:0;margin-right:0;margin-top:0px;margin-bottom:0px;text-indent:0;vertical-align:middle;direction:ltr;&quot;&gt;&lt;font style=&quot;font-size:15px;font-family:0;color:#000000;direction:ltr;letter-spacing:0px;line-height:120%;opacity:1&quot;&gt;履约监管&lt;/font&gt;&lt;/p&gt;&lt;/div&gt;" tags="Background" id="28">
          <mxCell style="verticalAlign=middle;align=center;overflow=width;vsdxID=27;fillColor=#FFFFFF;gradientColor=none;shape=stencil(lVLLEoIwDPyaXjt9oEPPiP/BDEU6IsVSFP9ealBaQBxv2WTTTdJFPGnLrJGIkdYafZZ3ldsS8QNiTNWlNMoOEeIp4kmhjTwZ3dU54CZzTBdd9M290EMfcR2MPABRikX0yhyBfO2y3JFpyA5hzwBGmIiRwHzC+Falak9Y7LCggTjZEKZkW3qqsy+bhOoTH3AcY7L/R/+TeE/g7zMbanUC71ir7O3LL+Rn6y/2CcV//PoQTH4pVFWB3fz63F9DCrzJ0yc=);strokeColor=#000000;spacingTop=-3;spacingBottom=-3;spacingLeft=-3;spacingRight=-3;points=[];labelBackgroundColor=none;rounded=0;html=1;whiteSpace=wrap;" parent="1" vertex="1">
            <mxGeometry x="112" y="712" width="97" height="33" as="geometry" />
          </mxCell>
        </UserObject>
        <UserObject label="&lt;div style=&quot;font-size: 1px&quot;&gt;&lt;p style=&quot;text-align:center;margin-left:0;margin-right:0;margin-top:0px;margin-bottom:0px;text-indent:0;vertical-align:middle;direction:ltr;&quot;&gt;&lt;font style=&quot;font-size:14px;font-family:0;color:#000000;direction:ltr;letter-spacing:0px;line-height:120%;opacity:1&quot;&gt;药品和医用耗材结构分析&lt;/font&gt;&lt;/p&gt;&lt;/div&gt;" tags="Background" id="29">
          <mxCell style="verticalAlign=middle;align=center;overflow=width;vsdxID=28;fillColor=#FFFFFF;gradientColor=none;shape=stencil(lVLREoIgEPwaXhk4mtRns/9wRkwmE0Ms+/skTEFNp7fbuz329jjE4qZIa46ANFrJK3+KTBeInRCAqAquhO4jxBLE4lwqflGyrTKL69QwTXSTD/NCZ/uI6QDysohSHB0+mbMl39s0M2Tqs33YwdCNAzYQwCUMb5WicoSjEEPgiZMNYUp2pMc6/HDiq098i8MQk+M/+mPiO4HrZzbU+gTTslbZ25tfyM/sL/z44ju/3gfTveSiLO25ufX5ffUpe5sseQM=);strokeColor=#000000;spacingTop=-3;spacingBottom=-3;spacingLeft=-3;spacingRight=-3;points=[];labelBackgroundColor=none;rounded=0;html=1;whiteSpace=wrap;" parent="1" vertex="1">
            <mxGeometry x="244" y="709" width="231" height="33" as="geometry" />
          </mxCell>
        </UserObject>
        <UserObject label="&lt;div style=&quot;font-size: 1px&quot;&gt;&lt;p style=&quot;text-align:center;margin-left:0;margin-right:0;margin-top:0px;margin-bottom:0px;text-indent:0;vertical-align:middle;direction:ltr;&quot;&gt;&lt;font style=&quot;font-size:14px;font-family:0;color:#000000;direction:ltr;letter-spacing:0px;line-height:120%;opacity:1&quot;&gt;价格分析&lt;/font&gt;&lt;/p&gt;&lt;/div&gt;" tags="Background" id="30">
          <mxCell style="verticalAlign=middle;align=center;overflow=width;vsdxID=29;fillColor=#FFFFFF;gradientColor=none;shape=stencil(lVLLEoIwDPyaXjt9gMIZ8T+YoUhHpFiK4t9LDUoLiOMtm2y6SbqIJ22ZNQIx0hqtzuIuc1MifkCMyboUWpohQjxFPCmUFietujoH3GSWaaOLutkXeugjtoORByBKcchfmSOQr12WWzL12T7sGcAAk2AkMJcwvlXJ2hGOQxzvPHGyIUzJtvRUZ1828dUnPuAowsH+H/1P4j2Bu89sqNUJnGOtsrcvv5Cfrb/Yxxf/8etDMPmlkFUFdnPrc38NKfAmT58=);strokeColor=#000000;spacingTop=-3;spacingBottom=-3;spacingLeft=-3;spacingRight=-3;points=[];labelBackgroundColor=none;rounded=0;html=1;whiteSpace=wrap;" parent="1" vertex="1">
            <mxGeometry x="112" y="757" width="98" height="34" as="geometry" />
          </mxCell>
        </UserObject>
        <UserObject label="&lt;div style=&quot;font-size: 1px&quot;&gt;&lt;p style=&quot;text-align:center;margin-left:0;margin-right:0;margin-top:0px;margin-bottom:0px;text-indent:0;vertical-align:middle;direction:ltr;&quot;&gt;&lt;font style=&quot;font-size:14px;font-family:0;color:#000000;direction:ltr;letter-spacing:0px;line-height:120%;opacity:1&quot;&gt;专题分析&lt;/font&gt;&lt;/p&gt;&lt;/div&gt;" tags="Background" id="31">
          <mxCell style="verticalAlign=middle;align=center;overflow=width;vsdxID=30;fillColor=#FFFFFF;gradientColor=none;shape=stencil(lVLLEoIwDPyaXjtt6qOeUf+DGYp0RIoFFP9ealBaQBxv2WTTTdIlIqqyuFQEWFVbc1Z3ndQZEXsCoItMWV13EREHIqLUWHWypikSxGXsmC66mJt7ocU+5jqAPRBxTlfylTki+drEiSPzkB3CFhAKupU9AXxC/1auC094t6Gu5omzBWHOlqWHOnzZJFQf+IilpGv4R/+TeE/g7zMaanYC71iz7OXLT+RH60/2CcV//HoXDH5JdZ6j3fz62F9dCr0pDk8=);strokeColor=#000000;spacingTop=-3;spacingBottom=-3;spacingLeft=-3;spacingRight=-3;points=[];labelBackgroundColor=none;rounded=0;html=1;whiteSpace=wrap;" parent="1" vertex="1">
            <mxGeometry x="242" y="757" width="105" height="34" as="geometry" />
          </mxCell>
        </UserObject>
        <UserObject label="&lt;div style=&quot;font-size: 1px&quot;&gt;&lt;p style=&quot;text-align:center;margin-left:0;margin-right:0;margin-top:0px;margin-bottom:0px;text-indent:0;vertical-align:middle;direction:ltr;&quot;&gt;&lt;font style=&quot;font-size:14px;font-family:0;color:#000000;direction:ltr;letter-spacing:0px;line-height:120%;opacity:1&quot;&gt;平台短缺&lt;/font&gt;&lt;font style=&quot;font-size:NaNpx;font-family:0;color:#000000;direction:ltr;letter-spacing:0px;line-height:120%;opacity:1&quot;&gt;分析&lt;/font&gt;&lt;/p&gt;&lt;/div&gt;" tags="Background" id="32">
          <mxCell style="verticalAlign=middle;align=center;overflow=width;vsdxID=31;fillColor=#FFFFFF;gradientColor=none;shape=stencil(lZLREoIgEEW/hlcGlinz2ew/nBGTycRQy/4+aS2BHGZ627vc5bDLEpH1ddFJAqwfjL7IhyqHmogjAVBtLY0a5oiInIis0kaejR7bEnVXWKeNrvpub5iwjtkKYE9UHCh/J07ovY1Fab3cN/tyApSCJrvFAK5huatRrcNN9xR2HptFwJzF0es5bDfiw1c76kNC03/o38SH73YTPGnzAc6oNt3xuf/gg+bDdnx2/MfnYF2VSjUNbpp7Hq7WnMK1FPkL);strokeColor=#000000;spacingTop=-3;spacingBottom=-3;spacingLeft=-3;spacingRight=-3;points=[];labelBackgroundColor=none;rounded=0;html=1;whiteSpace=wrap;" parent="1" vertex="1">
            <mxGeometry x="241" y="807" width="106" height="33" as="geometry" />
          </mxCell>
        </UserObject>
        <UserObject label="&lt;div style=&quot;font-size: 1px&quot;&gt;&lt;p style=&quot;text-align:center;margin-left:0;margin-right:0;margin-top:0px;margin-bottom:0px;text-indent:0;vertical-align:middle;direction:ltr;&quot;&gt;&lt;font style=&quot;font-size:14px;font-family:0;color:#000000;direction:ltr;letter-spacing:0px;line-height:120%;opacity:1&quot;&gt;违规处罚查询&lt;br/&gt;&lt;/font&gt;&lt;/p&gt;&lt;/div&gt;" tags="Background" id="33">
          <mxCell style="verticalAlign=middle;align=center;overflow=width;vsdxID=32;fillColor=#FFFFFF;gradientColor=none;shape=stencil(lVLLEoIwDPyaXjtt6qOeUf+DGYp0RIoFFP9ealBaQBxv2WTTTdIlIqqyuFQEWFVbc1Z3ndQZEXsCoItMWV13EREHIqLUWHWypikSxGXsmC66mJt7ocU+5jqAPRBxTtfwyhyRfG3ixJF5yA5hCwgFlaIngE/o38p14QnvNpRvA3G2IMzZsvRQhy+bhOoDH7GUdCX/0f8k3hP4+4yGmp3AO9Yse/nyE/nR+pN9QvEfv94Fg19SnedoN78+9leXQm+KwxM=);strokeColor=#000000;spacingTop=-3;spacingBottom=-3;spacingLeft=-3;spacingRight=-3;points=[];labelBackgroundColor=none;rounded=0;html=1;whiteSpace=wrap;" parent="1" vertex="1">
            <mxGeometry x="367" y="806" width="104" height="34" as="geometry" />
          </mxCell>
        </UserObject>
        <UserObject label="" tags="Background" id="34">
          <mxCell style="vsdxID=33;fillColor=#ffe6cc;gradientColor=none;fillOpacity=60;shape=stencil(lVLRDoIwDPyavS6jC5k+I/4HyYYsIsMBin8vswgbEIxvvfa6u3YlPGmKrFYEWNNac1VPLduC8BMB0FWhrG6HiPCU8CQ3Vl2s6SqJuM4c00U383Av9NjHXAewFyKgID6JM3LvXSYdNwrJIewBYUQhHgngE8a3Sl15uscDFXGgzXaEI/ZDeqrD9iCh+EwfzQgq+D/yU+JrwB9n4WnbwbyrTfb+4lfyi+lX84Ti+38+BPOx5Los8db8+vK4hhQeJk/f);strokeColor=#000000;spacingTop=-3;spacingBottom=-3;spacingLeft=-3;spacingRight=-3;points=[];labelBackgroundColor=none;rounded=0;html=1;whiteSpace=wrap;" parent="1" vertex="1">
            <mxGeometry x="515" y="677" width="320" height="176" as="geometry" />
          </mxCell>
        </UserObject>
        <UserObject label="&lt;div style=&quot;font-size: 1px&quot;&gt;&lt;p style=&quot;text-align:center;margin-left:0;margin-right:0;margin-top:0px;margin-bottom:0px;text-indent:0;vertical-align:middle;direction:ltr;&quot;&gt;&lt;font style=&quot;font-size:18px;font-family:0;color:#000000;direction:ltr;letter-spacing:0px;line-height:120%;opacity:1&quot;&gt;&lt;b&gt;数据共享&lt;/b&gt;&lt;/font&gt;&lt;/p&gt;&lt;/div&gt;" tags="Background" id="35">
          <mxCell style="verticalAlign=middle;align=center;overflow=width;vsdxID=34;fillColor=none;gradientColor=none;shape=stencil(nZBLDoAgDAVP0z3SIyjeg0SURgWD+Lu9EGL8xBW7N828Ji1gOWs5KeBs9s72aqPGa8AKOCejlSMfEqAALFvrVOfsYprEk4xmTKNd44Y99VhscHY8qU7iQOYhFixbvfhXzlZfYgj3hQG+54dReh2KEw==);strokeColor=none;strokeWidth=0;spacingTop=-3;spacingBottom=-3;spacingLeft=-3;spacingRight=-3;points=[];labelBackgroundColor=none;rounded=0;html=1;whiteSpace=wrap;" parent="1" vertex="1">
            <mxGeometry x="586" y="672" width="160" height="40" as="geometry" />
          </mxCell>
        </UserObject>
        <UserObject label="&lt;div style=&quot;font-size: 1px&quot;&gt;&lt;p style=&quot;text-align:center;margin-left:0;margin-right:0;margin-top:0px;margin-bottom:0px;text-indent:0;vertical-align:middle;direction:ltr;&quot;&gt;&lt;font style=&quot;font-size:14px;font-family:0;color:#000000;direction:ltr;letter-spacing:0px;line-height:120%;opacity:1&quot;&gt;机构及产品数据共享联动&lt;/font&gt;&lt;/p&gt;&lt;/div&gt;" tags="Background" id="36">
          <mxCell style="verticalAlign=middle;align=center;overflow=width;vsdxID=35;fillColor=#FFFFFF;gradientColor=none;shape=stencil(fZLREoIgEEW/hlcHl2jy2ew/nBGTycQQy/4+aS0BHd72LhcOF5awfGjKXhCgg9HqJl6yMg1hZwIgu0ZoaeaKsIKwvFZaXLUauwp1X1qnre7qaU+YcB+1O4C+UaU04d/GBb2PsaysN/XNvpwAJUsOfDGAa1jOamXncLNjwrnHphFwSuPodR32g/jw1Y76lEVjb+j/xo/vpgmutHsB56l23fF33+CD8GEcnx3/8blYR6WWbYuT5q6HozW3cCxZ8QE=);strokeColor=#000000;spacingTop=-3;spacingBottom=-3;spacingLeft=-3;spacingRight=-3;points=[];labelBackgroundColor=none;rounded=0;html=1;whiteSpace=wrap;" parent="1" vertex="1">
            <mxGeometry x="533" y="708" width="115" height="38" as="geometry" />
          </mxCell>
        </UserObject>
        <UserObject label="&lt;div style=&quot;font-size: 1px&quot;&gt;&lt;p style=&quot;text-align:center;margin-left:0;margin-right:0;margin-top:0px;margin-bottom:0px;text-indent:0;vertical-align:middle;direction:ltr;&quot;&gt;&lt;font style=&quot;font-size:14px;font-family:0;color:#000000;direction:ltr;letter-spacing:0px;line-height:120%;opacity:1&quot;&gt;药品和医用耗材价格共享联动&lt;/font&gt;&lt;/p&gt;&lt;/div&gt;" tags="Background" id="37">
          <mxCell style="verticalAlign=middle;align=center;overflow=width;vsdxID=36;fillColor=#FFFFFF;gradientColor=none;shape=stencil(lVLLEoIwDPyaXjtt6vA4I/4HMxTpiBQrKP691KC0gDjessmmm6RLRHIts0YSYNfW6JO8q7wtidgTAFWX0qh2iIhIiUgKbeTR6K7OETeZZdrorG/2hR77mO0A9kDEGeXilTkg+dJluSVzn+3DHhAKCsFIAJcwvlWp2hGOAxruPHG2IczZtvRUhy+b+OoTH3EU0yj8R/+TeE/g7jMbanUC51ir7O3LL+Rn6y/28cV//PoQTH4pVFWh3dz63F9DCr0p0ic=);strokeColor=#000000;spacingTop=-3;spacingBottom=-3;spacingLeft=-3;spacingRight=-3;points=[];labelBackgroundColor=none;rounded=0;html=1;whiteSpace=wrap;" parent="1" vertex="1">
            <mxGeometry x="683" y="708" width="122" height="39" as="geometry" />
          </mxCell>
        </UserObject>
        <UserObject label="&lt;div style=&quot;font-size: 1px&quot;&gt;&lt;p style=&quot;text-align:center;margin-left:0;margin-right:0;margin-top:0px;margin-bottom:0px;text-indent:0;vertical-align:middle;direction:ltr;&quot;&gt;&lt;font style=&quot;font-size:14px;font-family:0;color:#000000;direction:ltr;letter-spacing:0px;line-height:120%;opacity:1&quot;&gt;药品限价管理&lt;/font&gt;&lt;/p&gt;&lt;/div&gt;" tags="Background" id="38">
          <mxCell style="verticalAlign=middle;align=center;overflow=width;vsdxID=37;fillColor=#FFFFFF;gradientColor=none;shape=stencil(lVLbDoMgDP0aXgkWNfPZuf8wESeZE4eXub+frG6CGpK99bSnnNNSwtOuyltBgHW9VjfxlEVfEX4mALKphJb9HBGeEZ6WSourVkNTIG5zwzTRXY3mhQn7mOkA9kJ0okn8SVyQ+xjywnADl+zCCRByGkYLAWzC8lYtG0s3iWkUOdrMIxwwv/Rah+NBXPGVvpgJKAv/kf8lvgbscTaeDh1Yuzpk+xe/k99Mv5vHFff/+Rysx1LKusZbs+vb45pTeJg8ewM=);strokeColor=#000000;spacingTop=-3;spacingBottom=-3;spacingLeft=-3;spacingRight=-3;points=[];labelBackgroundColor=none;rounded=0;html=1;whiteSpace=wrap;" parent="1" vertex="1">
            <mxGeometry x="533" y="751" width="115" height="44" as="geometry" />
          </mxCell>
        </UserObject>
        <UserObject label="&lt;div style=&quot;font-size: 1px&quot;&gt;&lt;p style=&quot;text-align:center;margin-left:0;margin-right:0;margin-top:0px;margin-bottom:0px;text-indent:0;vertical-align:middle;direction:ltr;&quot;&gt;&lt;font style=&quot;font-size:14px;font-family:0;color:#000000;direction:ltr;letter-spacing:0px;line-height:120%;opacity:1&quot;&gt;配送数据共享联动&lt;/font&gt;&lt;/p&gt;&lt;/div&gt;" tags="Background" id="39">
          <mxCell style="verticalAlign=middle;align=center;overflow=width;vsdxID=38;fillColor=#FFFFFF;gradientColor=none;shape=stencil(lVLRDoIwDPyavS6jMyDPiP9BwpBFZDiG4t/LLMoGZIlvvfa6u3YlPOvrohMEWG+0uoqnLE1N+IkAyLYWWpopIjwnPKuUFhethrZE3BWWaaObetgXRuxjtgPYC9GRpvEncUbufShKy418sg9HQMgpJDMBXML8ViNbRzeNacI9bRYQjlhYeqnD/iC++EKfzUSUHf6R/yW+BtxxVp52HTi72mWHF7+RX02/mccXD//5FCzHUsmmwVtz6+vjmlJ4mDx/Aw==);strokeColor=#000000;spacingTop=-3;spacingBottom=-3;spacingLeft=-3;spacingRight=-3;points=[];labelBackgroundColor=none;rounded=0;html=1;whiteSpace=wrap;" parent="1" vertex="1">
            <mxGeometry x="683" y="752" width="122" height="44" as="geometry" />
          </mxCell>
        </UserObject>
        <UserObject label="&lt;div style=&quot;font-size: 1px&quot;&gt;&lt;p style=&quot;text-align:center;margin-left:0;margin-right:0;margin-top:0px;margin-bottom:0px;text-indent:0;vertical-align:middle;direction:ltr;&quot;&gt;&lt;font style=&quot;font-size:14px;font-family:0;color:#000000;direction:ltr;letter-spacing:0px;line-height:120%;opacity:1&quot;&gt;政策文件数据管理&lt;/font&gt;&lt;/p&gt;&lt;/div&gt;" tags="Background" id="40">
          <mxCell style="verticalAlign=middle;align=center;overflow=width;vsdxID=39;fillColor=#FFFFFF;gradientColor=none;shape=stencil(lVLLEoIwDPyaXpk2PYBnxP9ghiIdkWJ5iH9va9C2gDjessmmu0lDeNpVeSsI0K7X6iLusugrwo8EQDaV0LI3EeEZ4WmptDhrNTQF4ja3TBtd1WhfmLCP2g6gD0QMIsZfmROSb0NeWDIL2SGcACFEMNfBr89P1bLxdA9xlATSdEeW0X1hV4cvc4Tijo84MWbif/Q/ibcDb5yFp00DblOb5P2tr8QXw6+mCbV//LgJ3K2Usq7x1Pz68rZMCu+SZ08=);strokeColor=#000000;spacingTop=-3;spacingBottom=-3;spacingLeft=-3;spacingRight=-3;points=[];labelBackgroundColor=none;rounded=0;html=1;whiteSpace=wrap;" parent="1" vertex="1">
            <mxGeometry x="633" y="1062" width="182" height="32" as="geometry" />
          </mxCell>
        </UserObject>
        <UserObject label="&lt;div style=&quot;font-size: 1px&quot;&gt;&lt;p style=&quot;text-align:center;margin-left:0;margin-right:0;margin-top:0px;margin-bottom:0px;text-indent:0;vertical-align:middle;direction:ltr;&quot;&gt;&lt;font style=&quot;font-size:15px;font-family:0;color:#000000;direction:ltr;letter-spacing:0px;line-height:120%;opacity:1&quot;&gt;协议管理&lt;/font&gt;&lt;/p&gt;&lt;/div&gt;" tags="Background" id="41">
          <mxCell style="verticalAlign=middle;align=center;overflow=width;vsdxID=40;fillColor=#FFFFFF;gradientColor=none;shape=stencil(lZLdDoMgDIWfhlsCJdn02rn3MBEnmROHP3NvP1ndBGZIdtdTTvloKRFZXxedJMD6weirfKhyqIk4EQDV1tKoYYmIyInIKm3kxeixLVF3hXXa6KYne8OMdcxWAHui4kD5O3FG730sSuvlvtmXM6AUlMFqANew3tWo1uGmB5omHptFwJzF0ds57Dfiwzc76uRI03/o38SH73YTPGn3Ac6odt3xuf/gg+bDdnx2/MeXYFuVSjUNbpp7Hq7WksK1FPkL);strokeColor=#000000;spacingTop=-3;spacingBottom=-3;spacingLeft=-3;spacingRight=-3;points=[];labelBackgroundColor=none;rounded=0;html=1;whiteSpace=wrap;" parent="1" vertex="1">
            <mxGeometry x="504" y="981" width="132" height="33" as="geometry" />
          </mxCell>
        </UserObject>
        <UserObject label="&lt;div style=&quot;font-size: 1px&quot;&gt;&lt;p style=&quot;text-align:center;margin-left:0;margin-right:0;margin-top:0px;margin-bottom:0px;text-indent:0;vertical-align:middle;direction:ltr;&quot;&gt;&lt;font style=&quot;font-size:15px;font-family:0;color:#000000;direction:ltr;letter-spacing:0px;line-height:120%;opacity:1&quot;&gt;结构分析&lt;/font&gt;&lt;/p&gt;&lt;/div&gt;" tags="Background" id="42">
          <mxCell style="verticalAlign=middle;align=center;overflow=width;vsdxID=41;fillColor=#FFFFFF;gradientColor=none;shape=stencil(lVLLEoIwDPyaXjtt6gPOiP/BDEU6IsUCin8vNSgtII63bLLpJukSEdV5UkkCrG6MPsu7SpuciAMBUGUujWr6iIiYiCjTRp6MbssUcZVYpo0u+mZf6LCP2Q5gD0QcqIBX5ojka5uklsx9tg87QLihnA8EcAnDW4UqHeFwS4PQE2crwpytS491+LKJrz7yEQd7ugv+0f8k3hO4+0yGWpzAOdYie/3yM/nJ+rN9fPEfv94Ho18yVRRoN7c+9VefQm+K+Ak=);strokeColor=#000000;spacingTop=-3;spacingBottom=-3;spacingLeft=-3;spacingRight=-3;points=[];labelBackgroundColor=none;rounded=0;html=1;whiteSpace=wrap;" parent="1" vertex="1">
            <mxGeometry x="112" y="806" width="97" height="32" as="geometry" />
          </mxCell>
        </UserObject>
        <UserObject label="" tags="Background" id="43">
          <mxCell style="vsdxID=42;fillColor=#e6ffcc;gradientColor=none;fillOpacity=60;shape=stencil(lVLRDoIwDPyavS7baog8I/4HyYYsIsMBin8vswgbEIxvvfa6u3YlkDRFVisiWNNac1VPLduCwIkIoatCWd0OEYGUQJIbqy7WdJVEXGeO6aKbebgXeuxjrkOwFyKgEH8SZ+Teu0w6Lg/JIewFQk5ZNBKETxjfKnXl6cZHGh8CbbYjzNkP6akutgcJxWf6aCaiEf9Hfkp8DfjjLDxtO5h3tcneX/xKfjH9ap5QfP/Ph2A+llyXJd6aX18e15DCw4T0DQ==);strokeColor=#000000;spacingTop=-3;spacingBottom=-3;spacingLeft=-3;spacingRight=-3;points=[];labelBackgroundColor=none;rounded=0;html=1;whiteSpace=wrap;" parent="1" vertex="1">
            <mxGeometry x="80" y="904" width="375" height="118" as="geometry" />
          </mxCell>
        </UserObject>
        <UserObject label="&lt;div style=&quot;font-size: 1px&quot;&gt;&lt;p style=&quot;text-align:center;margin-left:0;margin-right:0;margin-top:0px;margin-bottom:0px;text-indent:0;vertical-align:middle;direction:ltr;&quot;&gt;&lt;font style=&quot;font-size:18px;font-family:0;color:#000000;direction:ltr;letter-spacing:0px;line-height:120%;opacity:1&quot;&gt;&lt;b&gt;产品政策属性查询&lt;br/&gt;&lt;/b&gt;&lt;/font&gt;&lt;/p&gt;&lt;/div&gt;" tags="Background" id="44">
          <mxCell style="verticalAlign=middle;align=center;overflow=width;vsdxID=43;fillColor=none;gradientColor=none;shape=stencil(nZBLDoAgDAVP0z3SIyjeg0SURgWD+Lu9EGL8xBW7N828Ji1gOWs5KeBs9s72aqPGa8AKOCejlSMfEqAALFvrVOfsYprEk4xmTKNd44Y99VhscHY8qU7iQOYhFixbvfhXzlZfYgj3hQG+54dReh2KEw==);strokeColor=none;strokeWidth=0;spacingTop=-3;spacingBottom=-3;spacingLeft=-3;spacingRight=-3;points=[];labelBackgroundColor=none;rounded=0;html=1;whiteSpace=wrap;" parent="1" vertex="1">
            <mxGeometry x="171" y="901" width="160" height="40" as="geometry" />
          </mxCell>
        </UserObject>
        <UserObject label="&lt;div style=&quot;font-size: 1px&quot;&gt;&lt;p style=&quot;text-align:center;margin-left:0;margin-right:0;margin-top:0px;margin-bottom:0px;text-indent:0;vertical-align:middle;direction:ltr;&quot;&gt;&lt;font style=&quot;font-size:15px;font-family:0;color:#000000;direction:ltr;letter-spacing:0px;line-height:120%;opacity:1&quot;&gt;国家基药目录查询&lt;br/&gt;&lt;/font&gt;&lt;/p&gt;&lt;/div&gt;" tags="Background" id="45">
          <mxCell style="verticalAlign=middle;align=center;overflow=width;vsdxID=44;fillColor=#FFFFFF;gradientColor=none;shape=stencil(lVLLEoIwDPyaXjttOoNwRvwPZijSESmWh/j3UoPSAuJ4yyabbpIuEXFTpLUkwJrW6Iu8q6wtiDgSAFUV0qh2jIhIiIhzbeTZ6K7KENepZdroqnv7woB9zHYAeyDinAb8lTkh+dalmSVzn+3DARACDWAigEuY3ipV5QhHBypCT5ztCHO2Lz3X4csmvvrMRxyGVET/6H8S7wncfRZDbU7gHGuTvX/5lfxi/dU+vviPXx+D2S+5Kku0m1tf+mtMoTdF8gQ=);strokeColor=#000000;spacingTop=-3;spacingBottom=-3;spacingLeft=-3;spacingRight=-3;points=[];labelBackgroundColor=none;rounded=0;html=1;whiteSpace=wrap;" parent="1" vertex="1">
            <mxGeometry x="99" y="937" width="152" height="34" as="geometry" />
          </mxCell>
        </UserObject>
        <UserObject label="&lt;div style=&quot;font-size: 1px&quot;&gt;&lt;p style=&quot;text-align:center;margin-left:0;margin-right:0;margin-top:0px;margin-bottom:0px;text-indent:0;vertical-align:middle;direction:ltr;&quot;&gt;&lt;font style=&quot;font-size:15px;font-family:0;color:#000000;direction:ltr;letter-spacing:0px;line-height:120%;opacity:1&quot;&gt;国家医保药品目录查询&lt;/font&gt;&lt;/p&gt;&lt;/div&gt;" tags="Background" id="46">
          <mxCell style="verticalAlign=middle;align=center;overflow=width;vsdxID=45;fillColor=#FFFFFF;gradientColor=none;shape=stencil(lVJBEoIwDHxNr5021QHOiP9ghiIdkWIBxd9LDUoLiOMtm2y6SbpExE2R1pIAa1qjz/KusrYg4kAAVFVIo9ohIiIhIs61kSejuypDXKeWaaOLvtkXeuxjtgPYAxHndBe9MkckX7s0s2Tus33YA0KgPBgJ4BLGt0pVOcJRQEPhibMNYc62pac6fNnEV5/4iMOQ7vk/+p/EewJ3n9lQqxM4x1plb19+IT9bf7GPL/7j14dg8kuuyhLt5tbn/hpS6E2RPAE=);strokeColor=#000000;spacingTop=-3;spacingBottom=-3;spacingLeft=-3;spacingRight=-3;points=[];labelBackgroundColor=none;rounded=0;html=1;whiteSpace=wrap;" parent="1" vertex="1">
            <mxGeometry x="263" y="937" width="184" height="34" as="geometry" />
          </mxCell>
        </UserObject>
        <UserObject label="&lt;div style=&quot;font-size: 1px&quot;&gt;&lt;p style=&quot;text-align:center;margin-left:0;margin-right:0;margin-top:0px;margin-bottom:0px;text-indent:0;vertical-align:middle;direction:ltr;&quot;&gt;&lt;font style=&quot;font-size:15px;font-family:0;color:#000000;direction:ltr;letter-spacing:0px;line-height:120%;opacity:1&quot;&gt;重点监控药品&lt;br/&gt;&lt;/font&gt;&lt;font style=&quot;font-size:15px;font-family:0;color:#000000;direction:ltr;letter-spacing:0px;line-height:120%;opacity:1&quot;&gt;目录查询&lt;/font&gt;&lt;/p&gt;&lt;/div&gt;" tags="Background" id="47">
          <mxCell style="verticalAlign=middle;align=center;overflow=width;vsdxID=46;fillColor=#FFFFFF;gradientColor=none;shape=stencil(lVJBEoIwDHxNr502dQDPiP9ghiIdkWIBxd9LDUoLiOMtm2y6SbpExE2R1pIAa1qjz/KusrYg4kAAVFVIo9ohIiIhIs61kSejuypDXKeWaaOLvtkXeuxjtgPYAxHnNAxemSOSr12aWTL32T7sASHQAEYCuITxrVJVjvA+pCLyxNmGMGfb0lMdvmziq098xFFEYfeP/ifxnsDdZzbU6gTOsVbZ25dfyM/WX+zji//49SGY/JKrskS7ufW5v4YUelMkTw==);strokeColor=#000000;spacingTop=-3;spacingBottom=-3;spacingLeft=-3;spacingRight=-3;points=[];labelBackgroundColor=none;rounded=0;html=1;whiteSpace=wrap;" parent="1" vertex="1">
            <mxGeometry x="99" y="981" width="152" height="34" as="geometry" />
          </mxCell>
        </UserObject>
        <UserObject label="&lt;div style=&quot;font-size: 1px&quot;&gt;&lt;p style=&quot;text-align:center;margin-left:0;margin-right:0;margin-top:0px;margin-bottom:0px;text-indent:0;vertical-align:middle;direction:ltr;&quot;&gt;&lt;font style=&quot;font-size:15px;font-family:0;color:#000000;direction:ltr;letter-spacing:0px;line-height:120%;opacity:1&quot;&gt;一致性评价药品&lt;br/&gt;&lt;/font&gt;&lt;font style=&quot;font-size:15px;font-family:0;color:#000000;direction:ltr;letter-spacing:0px;line-height:120%;opacity:1&quot;&gt;目录查询&lt;/font&gt;&lt;/p&gt;&lt;/div&gt;" tags="Background" id="48">
          <mxCell style="verticalAlign=middle;align=center;overflow=width;vsdxID=47;fillColor=#FFFFFF;gradientColor=none;shape=stencil(lVLLEoIwDPyaXpk2dQTPiP/BDEU6IsXyEP/e1qC0gDjessmmu0lDeNwUaS0I0KbV6iLuMmsLwo8EQFaF0LI1EeEJ4XGutDhr1VUZ4jq1TBtdVW9fGLCP2g6gD0QMArZ/ZU5IvnVpZsnMZ/twAISmORwJ4BLGt0pZOcKHMIi4J043hBndlp7q8GUSX33iI46Mm90/+p/E24E7z8zUqgNnWavs7c0v5GfjL+bxxX/8ugmme8llWeK5ufX5fZkU3iZPng==);strokeColor=#000000;spacingTop=-3;spacingBottom=-3;spacingLeft=-3;spacingRight=-3;points=[];labelBackgroundColor=none;rounded=0;html=1;whiteSpace=wrap;" parent="1" vertex="1">
            <mxGeometry x="263" y="981" width="184" height="32" as="geometry" />
          </mxCell>
        </UserObject>
        <UserObject label="&lt;div style=&quot;font-size: 1px&quot;&gt;&lt;p style=&quot;text-align:center;margin-left:0;margin-right:0;margin-top:0px;margin-bottom:0px;text-indent:0;vertical-align:middle;direction:ltr;&quot;&gt;&lt;font style=&quot;font-size:14px;font-family:0;color:#000000;direction:ltr;letter-spacing:0px;line-height:120%;opacity:1&quot;&gt;麻精药品价格共享联动&lt;/font&gt;&lt;/p&gt;&lt;/div&gt;" tags="Background" id="49">
          <mxCell style="verticalAlign=middle;align=center;overflow=width;vsdxID=48;fillColor=#FFFFFF;gradientColor=none;shape=stencil(lVLRDoIwDPyavS5jFZVnxP8gYcgiMhxD8e9lFmUDssS3XnvdXbsSSLsqbwXhrDNaXcVTFqYicCKcy6YSWpoxIpARSEulxUWrvikQt7ll2uimHvaFAfuY7eDshehIk8MncUbuvc8Ly418sg8HjhDoLp4I3CVMb9WycXSTPY1jT5sFhCMWlp7rfHsQX3ymT2YiyuAf+V/ia8AdZ+Fp04Gzq012ePEr+cX0q3l88fCfj8F8LKWsa7w1t748rjGFhwnZGw==);strokeColor=#000000;spacingTop=-3;spacingBottom=-3;spacingLeft=-3;spacingRight=-3;points=[];labelBackgroundColor=none;rounded=0;html=1;whiteSpace=wrap;" parent="1" vertex="1">
            <mxGeometry x="533" y="801" width="115" height="44" as="geometry" />
          </mxCell>
        </UserObject>
        <UserObject label="&lt;div style=&quot;font-size: 1px&quot;&gt;&lt;p style=&quot;text-align:center;margin-left:0;margin-right:0;margin-top:0px;margin-bottom:0px;text-indent:0;vertical-align:middle;direction:ltr;&quot;&gt;&lt;font style=&quot;font-size:14px;font-family:0;color:#000000;direction:ltr;letter-spacing:0px;line-height:120%;opacity:1&quot;&gt;国谈药品价格共享联动&lt;/font&gt;&lt;/p&gt;&lt;/div&gt;" tags="Background" id="50">
          <mxCell style="verticalAlign=middle;align=center;overflow=width;vsdxID=49;fillColor=#FFFFFF;gradientColor=none;shape=stencil(lVLRDoMgDPwaXgmUZM5n5/7DRJxkThzq5v5+srIJakj21muv3LWUiKyvi04SYP1g9FU+VTnURJwIgGpradQwR0TkRGSVNvJi9NiWiLvCMm100w/7woR9zHYAeyE60jT5JM7IvY9Fabk8JIdwAoSCAncE8AnurUa1nm56oEkaaLOIMGdx6aUO+4OE4gvdmeGUiX/kf4mvAX+claddB96udtnxxW/kV9Nv5gnF438+B8uxVKpp8Nb8+vq45hQepsjf);strokeColor=#000000;spacingTop=-3;spacingBottom=-3;spacingLeft=-3;spacingRight=-3;points=[];labelBackgroundColor=none;rounded=0;html=1;whiteSpace=wrap;" parent="1" vertex="1">
            <mxGeometry x="683" y="801" width="124" height="44" as="geometry" />
          </mxCell>
        </UserObject>
        <UserObject label="" tags="Background" id="51">
          <mxCell style="vsdxID=50;fillColor=#ccccff;gradientColor=none;fillOpacity=50;shape=stencil(lVLLEoMgDPwargyEvjxb/Q9nxMrUikVt7d9XGltBHWZ6yyYbdhNCRNyWWSMJsLYz+iqfKu9KIs4EQNWlNKobIyISIuJCG3kxuq9zxE1mmTa66Yd9YcA+ZjuAvRBxuuOfRIrce5/llst9sg8HQAhU8IkALmF6q1K1oxsd6SHytFlAmLOw9FyH7UF88Zk+mTnRffSP/C/xNeCOs/C06cDZ1SY7vPiV/GL61Ty+ePjPx2A+lkJVFd6aW18e15jCwxTJGw==);strokeColor=#000000;spacingTop=-3;spacingBottom=-3;spacingLeft=-3;spacingRight=-3;points=[];labelBackgroundColor=none;rounded=0;html=1;whiteSpace=wrap;" parent="1" vertex="1">
            <mxGeometry x="663" y="387" width="173" height="282" as="geometry" />
          </mxCell>
        </UserObject>
        <UserObject label="" tags="Background" id="52">
          <mxCell style="vsdxID=51;fillColor=#ccccff;gradientColor=none;fillOpacity=50;shape=stencil(lVLbDoIwDP2avS5bpxGeEf+DhCGLyHBcxL+XWZQNyBLfetrTndOuRCRtmTWSAGs7o2/yqfKuJOJMAFRdSqO6KSIiJSIptJFXo/s6R9xklmmjux7sCyP2MdsB7IWI0wP/JC7IffRZbrncJ/twBIRAeTQTwCXMb1WqdnTjE43A02YBYc7C0ksd9gfxxRf6bCaix/gf+V/ia8AdZ+Vp14Gzq112ePEb+dX0m3l88fCfT8FyLIWqKrw1t74+rimFhynSNw==);strokeColor=#000000;spacingTop=-3;spacingBottom=-3;spacingLeft=-3;spacingRight=-3;points=[];labelBackgroundColor=none;rounded=0;html=1;whiteSpace=wrap;" parent="1" vertex="1">
            <mxGeometry x="272" y="388" width="183" height="282" as="geometry" />
          </mxCell>
        </UserObject>
        <UserObject label="&lt;div style=&quot;font-size: 1px&quot;&gt;&lt;p style=&quot;text-align:center;margin-left:0;margin-right:0;margin-top:0px;margin-bottom:0px;text-indent:0;vertical-align:middle;direction:ltr;&quot;&gt;&lt;font style=&quot;font-size:18px;font-family:0;color:#000000;direction:ltr;letter-spacing:0px;line-height:120%;opacity:1&quot;&gt;&lt;b&gt;招标管理&lt;/b&gt;&lt;/font&gt;&lt;/p&gt;&lt;/div&gt;" tags="Background" id="53">
          <mxCell style="verticalAlign=middle;align=center;overflow=width;vsdxID=52;fillColor=none;gradientColor=none;shape=stencil(nZBLDoAgDAVP0z3SIyjeg0SURgWD+Lu9EGL8xBW7N828Ji1gOWs5KeBs9s72aqPGa8AKOCejlSMfEqAALFvrVOfsYprEk4xmTKNd44Y99VhscHY8qU7iQOYhFixbvfhXzlZfYgj3hQG+54dReh2KEw==);strokeColor=none;strokeWidth=0;spacingTop=-3;spacingBottom=-3;spacingLeft=-3;spacingRight=-3;points=[];labelBackgroundColor=none;rounded=0;html=1;whiteSpace=wrap;" parent="1" vertex="1">
            <mxGeometry x="295" y="386" width="138" height="34" as="geometry" />
          </mxCell>
        </UserObject>
        <UserObject label="&lt;div style=&quot;font-size: 1px&quot;&gt;&lt;p style=&quot;text-align:center;margin-left:0;margin-right:0;margin-top:0px;margin-bottom:0px;text-indent:0;vertical-align:middle;direction:ltr;&quot;&gt;&lt;font style=&quot;font-size:14px;font-family:0;color:#000000;direction:ltr;letter-spacing:0px;line-height:120%;opacity:1&quot;&gt;招标项目管理&lt;/font&gt;&lt;/p&gt;&lt;/div&gt;" tags="Background" id="54">
          <mxCell style="verticalAlign=middle;align=center;overflow=width;vsdxID=53;fillColor=#FFFFFF;gradientColor=none;shape=stencil(lVJBEoIwDHxNr502dQTOiP9ghiIdEbCA4u+lBm0LiOMtm910kzRExG2RNpIAaztdn+VdZV1BxIEAqKqQWnVjRERCRJzXWp503VcZ4iY1ShNd6pt5YcA6ZiqAPRBxToP9K3NE8bVPMyPmvtqHAyAEGk08uPz0VKkqxzcKKPes2YYtZ9vGlocvc/jmVo84DCns/vH/JN4dOOPMelptwG5qVby99YX5bPjFNL73jx8fA3sruSpLPDWXn9/WmMK7FMkT);strokeColor=#000000;spacingTop=-3;spacingBottom=-3;spacingLeft=-3;spacingRight=-3;points=[];labelBackgroundColor=none;rounded=0;html=1;whiteSpace=wrap;" parent="1" vertex="1">
            <mxGeometry x="295" y="425" width="138" height="34" as="geometry" />
          </mxCell>
        </UserObject>
        <UserObject label="&lt;div style=&quot;font-size: 1px&quot;&gt;&lt;p style=&quot;text-align:center;margin-left:0;margin-right:0;margin-top:0px;margin-bottom:0px;text-indent:0;vertical-align:middle;direction:ltr;&quot;&gt;&lt;font style=&quot;font-size:14px;font-family:0;color:#000000;direction:ltr;letter-spacing:0px;line-height:120%;opacity:1&quot;&gt;目录管理&lt;/font&gt;&lt;/p&gt;&lt;/div&gt;" tags="Background" id="55">
          <mxCell style="verticalAlign=middle;align=center;overflow=width;vsdxID=54;fillColor=#FFFFFF;gradientColor=none;shape=stencil(lVJBEoIwDHxNr502dQTOiP9ghiIdEbCA4u+lBm0LiOMtm910kzRExG2RNpIAaztdn+VdZV1BxIEAqKqQWnVjRERCRJzXWp503VcZ4iY1ShNd6pt5YcA6ZiqAPRBxToP9K3NE8bVPMyPmvtqHAyAEGk08uPz0VKkqxzcKKPes2YYtZ9vGlocvc/jmVo84DCns/vH/JN4dOOPMelptwG5qVby99YX5bPjFNL73jx8fA3sruSpLPDWXn9/WmMK7FMkT);strokeColor=#000000;spacingTop=-3;spacingBottom=-3;spacingLeft=-3;spacingRight=-3;points=[];labelBackgroundColor=none;rounded=0;html=1;whiteSpace=wrap;" parent="1" vertex="1">
            <mxGeometry x="295" y="466" width="138" height="34" as="geometry" />
          </mxCell>
        </UserObject>
        <UserObject label="" tags="Background" id="56">
          <mxCell style="vsdxID=55;fillColor=#ccccff;gradientColor=none;fillOpacity=50;shape=stencil(lVLbDoIwDP2avS5bp0GeEf+DhCGLyHBcxL+XWZQNyBLfetrTndOuRCRtmTWSAGs7o2/yqfKuJOJMAFRdSqO6KSIiJSIptJFXo/s6R9xklmmjux7sCyP2MdsB7IWI0wP/JC7IffRZbrncJ/twBIRAIZoJ4BLmtypVO7pxRCPhabOAMGdh6aUO+4P44gt9NnOix/gf+V/ia8AdZ+Vp14Gzq112ePEb+dX0m3l88fCfT8FyLIWqKrw1t74+rimFhynSNw==);strokeColor=#000000;spacingTop=-3;spacingBottom=-3;spacingLeft=-3;spacingRight=-3;points=[];labelBackgroundColor=none;rounded=0;html=1;whiteSpace=wrap;" parent="1" vertex="1">
            <mxGeometry x="80" y="388" width="176" height="282" as="geometry" />
          </mxCell>
        </UserObject>
        <UserObject label="&lt;div style=&quot;font-size: 1px&quot;&gt;&lt;p style=&quot;text-align:center;margin-left:0;margin-right:0;margin-top:0px;margin-bottom:0px;text-indent:0;vertical-align:middle;direction:ltr;&quot;&gt;&lt;font style=&quot;font-size:14px;font-family:0;color:#000000;direction:ltr;letter-spacing:0px;line-height:120%;opacity:1&quot;&gt;资质项配置&lt;/font&gt;&lt;/p&gt;&lt;/div&gt;" tags="Background" id="57">
          <mxCell style="verticalAlign=middle;align=center;overflow=width;vsdxID=56;fillColor=#FFFFFF;gradientColor=none;shape=stencil(lVJBEoIwDHxNr502dQTOiP9ghiIdEbCA4u+lBm0LiOMtm910kzRExG2RNpIAaztdn+VdZV1BxIEAqKqQWnVjRERCRJzXWp503VcZ4iY1ShNd6pt5YcA6ZiqAPRBxToP9K3NE8bVPMyPmvtqHAyAEGk08uPz0VKkqxzcKKPes2YYtZ9vGlocvc/jmVo84DCns/vH/JN4dOOPMelptwG5qVby99YX5bPjFNL73jx8fA3sruSpLPDWXn9/WmMK7FMkT);strokeColor=#000000;spacingTop=-3;spacingBottom=-3;spacingLeft=-3;spacingRight=-3;points=[];labelBackgroundColor=none;rounded=0;html=1;whiteSpace=wrap;" parent="1" vertex="1">
            <mxGeometry x="99" y="422" width="138" height="34" as="geometry" />
          </mxCell>
        </UserObject>
        <UserObject label="&lt;div style=&quot;font-size: 1px&quot;&gt;&lt;p style=&quot;text-align:center;margin-left:0;margin-right:0;margin-top:0px;margin-bottom:0px;text-indent:0;vertical-align:middle;direction:ltr;&quot;&gt;&lt;font style=&quot;font-size:14px;font-family:0;color:#000000;direction:ltr;letter-spacing:0px;line-height:120%;opacity:1&quot;&gt;产品库&lt;/font&gt;&lt;/p&gt;&lt;/div&gt;" tags="Background" id="58">
          <mxCell style="verticalAlign=middle;align=center;overflow=width;vsdxID=57;fillColor=#FFFFFF;gradientColor=none;shape=stencil(lVJBEoIwDHxNr502dQTOiP9ghiIdEbCA4u+lBm0LiOMtm910kzRExG2RNpIAaztdn+VdZV1BxIEAqKqQWnVjRERCRJzXWp503VcZ4iY1ShNd6pt5YcA6ZiqAPRBxToP9K3NE8bVPMyPmvtqHAyAEGk08uPz0VKkqxzcKKPes2YYtZ9vGlocvc/jmVo84DCns/vH/JN4dOOPMelptwG5qVby99YX5bPjFNL73jx8fA3sruSpLPDWXn9/WmMK7FMkT);strokeColor=#000000;spacingTop=-3;spacingBottom=-3;spacingLeft=-3;spacingRight=-3;points=[];labelBackgroundColor=none;rounded=0;html=1;whiteSpace=wrap;" parent="1" vertex="1">
            <mxGeometry x="99" y="504" width="138" height="34" as="geometry" />
          </mxCell>
        </UserObject>
        <UserObject label="&lt;div style=&quot;font-size: 1px&quot;&gt;&lt;p style=&quot;text-align:center;margin-left:0;margin-right:0;margin-top:0px;margin-bottom:0px;text-indent:0;vertical-align:middle;direction:ltr;&quot;&gt;&lt;font style=&quot;font-size:18px;font-family:0;color:#000000;direction:ltr;letter-spacing:0px;line-height:120%;opacity:1&quot;&gt;&lt;b&gt;资质项配置&lt;br/&gt;&lt;/b&gt;&lt;/font&gt;&lt;/p&gt;&lt;/div&gt;" tags="Background" id="59">
          <mxCell style="verticalAlign=middle;align=center;overflow=width;vsdxID=58;fillColor=none;gradientColor=none;shape=stencil(nZBLDoAgDAVP0z3SIyjeg0SURgWD+Lu9EGL8xBW7N828Ji1gOWs5KeBs9s72aqPGa8AKOCejlSMfEqAALFvrVOfsYprEk4xmTKNd44Y99VhscHY8qU7iQOYhFixbvfhXzlZfYgj3hQG+54dReh2KEw==);strokeColor=none;strokeWidth=0;spacingTop=-3;spacingBottom=-3;spacingLeft=-3;spacingRight=-3;points=[];labelBackgroundColor=none;rounded=0;html=1;whiteSpace=wrap;" parent="1" vertex="1">
            <mxGeometry x="99" y="388" width="125" height="34" as="geometry" />
          </mxCell>
        </UserObject>
        <UserObject label="&lt;div style=&quot;font-size: 1px&quot;&gt;&lt;p style=&quot;text-align:center;margin-left:0;margin-right:0;margin-top:0px;margin-bottom:0px;text-indent:0;vertical-align:middle;direction:ltr;&quot;&gt;&lt;font style=&quot;font-size:14px;font-family:0;color:#000000;direction:ltr;letter-spacing:0px;line-height:120%;opacity:1&quot;&gt;产品资质&lt;/font&gt;&lt;/p&gt;&lt;/div&gt;" tags="Background" id="60">
          <mxCell style="verticalAlign=middle;align=center;overflow=width;vsdxID=59;fillColor=#FFFFFF;gradientColor=none;shape=stencil(lVJBEoIwDHxNr502dQTOiP9ghiIdEbCA4u+lBm0LiOMtm910kzRExG2RNpIAaztdn+VdZV1BxIEAqKqQWnVjRERCRJzXWp503VcZ4iY1ShNd6pt5YcA6ZiqAPRBxToP9K3NE8bVPMyPmvtqHAyAEGk08uPz0VKkqxzcKKPes2YYtZ9vGlocvc/jmVo84DCns/vH/JN4dOOPMelptwG5qVby99YX5bPjFNL73jx8fA3sruSpLPDWXn9/WmMK7FMkT);strokeColor=#000000;spacingTop=-3;spacingBottom=-3;spacingLeft=-3;spacingRight=-3;points=[];labelBackgroundColor=none;rounded=0;html=1;whiteSpace=wrap;" parent="1" vertex="1">
            <mxGeometry x="99" y="587" width="138" height="34" as="geometry" />
          </mxCell>
        </UserObject>
        <UserObject label="&lt;div style=&quot;font-size: 1px&quot;&gt;&lt;p style=&quot;text-align:center;margin-left:0;margin-right:0;margin-top:0px;margin-bottom:0px;text-indent:0;vertical-align:middle;direction:ltr;&quot;&gt;&lt;font style=&quot;font-size:14px;font-family:0;color:#000000;direction:ltr;letter-spacing:0px;line-height:120%;opacity:1&quot;&gt;企业资质&lt;/font&gt;&lt;/p&gt;&lt;/div&gt;" tags="Background" id="61">
          <mxCell style="verticalAlign=middle;align=center;overflow=width;vsdxID=60;fillColor=#FFFFFF;gradientColor=none;shape=stencil(lVJBEoIwDHxNr502dQTOiP9ghiIdEbCA4u+lBm0LiOMtm910kzRExG2RNpIAaztdn+VdZV1BxIEAqKqQWnVjRERCRJzXWp503VcZ4iY1ShNd6pt5YcA6ZiqAPRBxToP9K3NE8bVPMyPmvtqHAyAEGk08uPz0VKkqxzcKKPes2YYtZ9vGlocvc/jmVo84DCns/vH/JN4dOOPMelptwG5qVby99YX5bPjFNL73jx8fA3sruSpLPDWXn9/WmMK7FMkT);strokeColor=#000000;spacingTop=-3;spacingBottom=-3;spacingLeft=-3;spacingRight=-3;points=[];labelBackgroundColor=none;rounded=0;html=1;whiteSpace=wrap;" parent="1" vertex="1">
            <mxGeometry x="99" y="545" width="138" height="34" as="geometry" />
          </mxCell>
        </UserObject>
        <UserObject label="&lt;div style=&quot;font-size: 1px&quot;&gt;&lt;p style=&quot;text-align:center;margin-left:0;margin-right:0;margin-top:0px;margin-bottom:0px;text-indent:0;vertical-align:middle;direction:ltr;&quot;&gt;&lt;font style=&quot;font-size:14px;font-family:0;color:#000000;direction:ltr;letter-spacing:0px;line-height:120%;opacity:1&quot;&gt;申报管理&lt;/font&gt;&lt;/p&gt;&lt;/div&gt;" tags="Background" id="62">
          <mxCell style="verticalAlign=middle;align=center;overflow=width;vsdxID=61;fillColor=#FFFFFF;gradientColor=none;shape=stencil(lVJBEoIwDHxNr502dQTOiP9ghiIdEbCA4u+lBm0LiOMtm910kzRExG2RNpIAaztdn+VdZV1BxIEAqKqQWnVjRERCRJzXWp503VcZ4iY1ShNd6pt5YcA6ZiqAPRBxToP9K3NE8bVPMyPmvtqHAyAEGk08uPz0VKkqxzcKKPes2YYtZ9vGlocvc/jmVo84DCns/vH/JN4dOOPMelptwG5qVby99YX5bPjFNL73jx8fA3sruSpLPDWXn9/WmMK7FMkT);strokeColor=#000000;spacingTop=-3;spacingBottom=-3;spacingLeft=-3;spacingRight=-3;points=[];labelBackgroundColor=none;rounded=0;html=1;whiteSpace=wrap;" parent="1" vertex="1">
            <mxGeometry x="295" y="506" width="138" height="34" as="geometry" />
          </mxCell>
        </UserObject>
        <UserObject label="&lt;div style=&quot;font-size: 1px&quot;&gt;&lt;p style=&quot;text-align:center;margin-left:0;margin-right:0;margin-top:0px;margin-bottom:0px;text-indent:0;vertical-align:middle;direction:ltr;&quot;&gt;&lt;font style=&quot;font-size:14px;font-family:0;color:#000000;direction:ltr;letter-spacing:0px;line-height:120%;opacity:1&quot;&gt;分组管理&lt;/font&gt;&lt;/p&gt;&lt;/div&gt;" tags="Background" id="63">
          <mxCell style="verticalAlign=middle;align=center;overflow=width;vsdxID=62;fillColor=#FFFFFF;gradientColor=none;shape=stencil(lVJBEoIwDHxNr502dQTOiP9ghiIdEbCA4u+lBm0LiOMtm910kzRExG2RNpIAaztdn+VdZV1BxIEAqKqQWnVjRERCRJzXWp503VcZ4iY1ShNd6pt5YcA6ZiqAPRBxToP9K3NE8bVPMyPmvtqHAyAEGk08uPz0VKkqxzcKKPes2YYtZ9vGlocvc/jmVo84DCns/vH/JN4dOOPMelptwG5qVby99YX5bPjFNL73jx8fA3sruSpLPDWXn9/WmMK7FMkT);strokeColor=#000000;spacingTop=-3;spacingBottom=-3;spacingLeft=-3;spacingRight=-3;points=[];labelBackgroundColor=none;rounded=0;html=1;whiteSpace=wrap;" parent="1" vertex="1">
            <mxGeometry x="295" y="547" width="138" height="34" as="geometry" />
          </mxCell>
        </UserObject>
        <UserObject label="&lt;div style=&quot;font-size: 1px&quot;&gt;&lt;p style=&quot;text-align:center;margin-left:0;margin-right:0;margin-top:0px;margin-bottom:0px;text-indent:0;vertical-align:middle;direction:ltr;&quot;&gt;&lt;font style=&quot;font-size:14px;font-family:0;color:#000000;direction:ltr;letter-spacing:0px;line-height:120%;opacity:1&quot;&gt;竞价管理&lt;/font&gt;&lt;/p&gt;&lt;/div&gt;" tags="Background" id="64">
          <mxCell style="verticalAlign=middle;align=center;overflow=width;vsdxID=63;fillColor=#FFFFFF;gradientColor=none;shape=stencil(lVJBEoIwDHxNr502dQTOiP9ghiIdEbCA4u+lBm0LiOMtm910kzRExG2RNpIAaztdn+VdZV1BxIEAqKqQWnVjRERCRJzXWp503VcZ4iY1ShNd6pt5YcA6ZiqAPRBxToP9K3NE8bVPMyPmvtqHAyAEGk08uPz0VKkqxzcKKPes2YYtZ9vGlocvc/jmVo84DCns/vH/JN4dOOPMelptwG5qVby99YX5bPjFNL73jx8fA3sruSpLPDWXn9/WmMK7FMkT);strokeColor=#000000;spacingTop=-3;spacingBottom=-3;spacingLeft=-3;spacingRight=-3;points=[];labelBackgroundColor=none;rounded=0;html=1;whiteSpace=wrap;" parent="1" vertex="1">
            <mxGeometry x="295" y="588" width="138" height="34" as="geometry" />
          </mxCell>
        </UserObject>
        <UserObject label="&lt;div style=&quot;font-size: 1px&quot;&gt;&lt;p style=&quot;text-align:center;margin-left:0;margin-right:0;margin-top:0px;margin-bottom:0px;text-indent:0;vertical-align:middle;direction:ltr;&quot;&gt;&lt;font style=&quot;font-size:14px;font-family:0;color:#000000;direction:ltr;letter-spacing:0px;line-height:120%;opacity:1&quot;&gt;配送签约管理&lt;/font&gt;&lt;/p&gt;&lt;/div&gt;" tags="Background" id="65">
          <mxCell style="verticalAlign=middle;align=center;overflow=width;vsdxID=64;fillColor=#FFFFFF;gradientColor=none;shape=stencil(lVJBEoIwDHxNr502dQTOiP9ghiIdEbCA4u+lBm0LiOMtm910kzRExG2RNpIAaztdn+VdZV1BxIEAqKqQWnVjRERCRJzXWp503VcZ4iY1ShNd6pt5YcA6ZiqAPRBxToP9K3NE8bVPMyPmvtqHAyAEGk08uPz0VKkqxzcKKPes2YYtZ9vGlocvc/jmVo84DCns/vH/JN4dOOPMelptwG5qVby99YX5bPjFNL73jx8fA3sruSpLPDWXn9/WmMK7FMkT);strokeColor=#000000;spacingTop=-3;spacingBottom=-3;spacingLeft=-3;spacingRight=-3;points=[];labelBackgroundColor=none;rounded=0;html=1;whiteSpace=wrap;" parent="1" vertex="1">
            <mxGeometry x="295" y="628" width="138" height="34" as="geometry" />
          </mxCell>
        </UserObject>
        <UserObject label="" tags="Background" id="66">
          <mxCell style="vsdxID=65;fillColor=#ccccff;gradientColor=none;fillOpacity=50;shape=stencil(lVLRDoIwDPyavS5bpyLPiP9BwpBFZDhA8e9lFmUDssS3XnvdXbsSkbRl1kgCrO2MvsqnyruSiBMBUHUpjerGiIiUiKTQRl6M7usccZNZpo1u+mFfGLCP2Q5gL0Sc7vgncUbuvc9yy+U+2YcDIAQKu4kALmF6q1K1oxtHNDp42iwgzFlYeq7D9iC++EyfzBzpPv5H/pf4GnDHWXjadODsapMdXvxKfjH9ah5fPPznYzAfS6GqCm/NrS+Pa0zhYYr0DQ==);strokeColor=#000000;spacingTop=-3;spacingBottom=-3;spacingLeft=-3;spacingRight=-3;points=[];labelBackgroundColor=none;rounded=0;html=1;whiteSpace=wrap;" parent="1" vertex="1">
            <mxGeometry x="470" y="388" width="178" height="282" as="geometry" />
          </mxCell>
        </UserObject>
        <UserObject label="&lt;div style=&quot;font-size: 1px&quot;&gt;&lt;p style=&quot;text-align:center;margin-left:0;margin-right:0;margin-top:0px;margin-bottom:0px;text-indent:0;vertical-align:middle;direction:ltr;&quot;&gt;&lt;font style=&quot;font-size:14px;font-family:0;color:#000000;direction:ltr;letter-spacing:0px;line-height:120%;opacity:1&quot;&gt;目录管理&lt;/font&gt;&lt;/p&gt;&lt;/div&gt;" tags="Background" id="67">
          <mxCell style="verticalAlign=middle;align=center;overflow=width;vsdxID=66;fillColor=#FFFFFF;gradientColor=none;shape=stencil(lVJBEoIwDHxNr502dQTOiP9ghiIdEbCA4u+lBm0LiOMtm910kzRExG2RNpIAaztdn+VdZV1BxIEAqKqQWnVjRERCRJzXWp503VcZ4iY1ShNd6pt5YcA6ZiqAPRBxToP9K3NE8bVPMyPmvtqHAyAEGk08uPz0VKkqxzcKKPes2YYtZ9vGlocvc/jmVo84DCns/vH/JN4dOOPMelptwG5qVby99YX5bPjFNL73jx8fA3sruSpLPDWXn9/WmMK7FMkT);strokeColor=#000000;spacingTop=-3;spacingBottom=-3;spacingLeft=-3;spacingRight=-3;points=[];labelBackgroundColor=none;rounded=0;html=1;whiteSpace=wrap;" parent="1" vertex="1">
            <mxGeometry x="490" y="418" width="138" height="34" as="geometry" />
          </mxCell>
        </UserObject>
        <UserObject label="&lt;div style=&quot;font-size: 1px&quot;&gt;&lt;p style=&quot;text-align:center;margin-left:0;margin-right:0;margin-top:0px;margin-bottom:0px;text-indent:0;vertical-align:middle;direction:ltr;&quot;&gt;&lt;font style=&quot;font-size:14px;font-family:0;color:#000000;direction:ltr;letter-spacing:0px;line-height:120%;opacity:1&quot;&gt;&lt;br/&gt;&lt;/font&gt;&lt;font style=&quot;font-size:14px;font-family:0;color:#000000;direction:ltr;letter-spacing:0px;line-height:120%;opacity:1&quot;&gt;议价管理&lt;/font&gt;&lt;/p&gt;&lt;/div&gt;" tags="Background" id="68">
          <mxCell style="verticalAlign=middle;align=center;overflow=width;vsdxID=67;fillColor=#FFFFFF;gradientColor=none;shape=stencil(lVJBEoIwDHxNr502dQTOiP9ghiIdEbCA4u+lBm0LiOMtm910kzRExG2RNpIAaztdn+VdZV1BxIEAqKqQWnVjRERCRJzXWp503VcZ4iY1ShNd6pt5YcA6ZiqAPRBxToP9K3NE8bVPMyPmvtqHAyAEGk08uPz0VKkqxzcKKPes2YYtZ9vGlocvc/jmVo84DCns/vH/JN4dOOPMelptwG5qVby99YX5bPjFNL73jx8fA3sruSpLPDWXn9/WmMK7FMkT);strokeColor=#000000;spacingTop=-3;spacingBottom=-3;spacingLeft=-3;spacingRight=-3;points=[];labelBackgroundColor=none;rounded=0;html=1;whiteSpace=wrap;" parent="1" vertex="1">
            <mxGeometry x="490" y="460" width="138" height="34" as="geometry" />
          </mxCell>
        </UserObject>
        <UserObject label="&lt;div style=&quot;font-size: 1px&quot;&gt;&lt;p style=&quot;text-align:center;margin-left:0;margin-right:0;margin-top:0px;margin-bottom:0px;text-indent:0;vertical-align:middle;direction:ltr;&quot;&gt;&lt;font style=&quot;font-size:14px;font-family:0;color:#000000;direction:ltr;letter-spacing:0px;line-height:120%;opacity:1&quot;&gt;采购计划管理&lt;/font&gt;&lt;/p&gt;&lt;/div&gt;" tags="Background" id="69">
          <mxCell style="verticalAlign=middle;align=center;overflow=width;vsdxID=68;fillColor=#FFFFFF;gradientColor=none;shape=stencil(lVJBEoIwDHxNr502dQTOiP9ghiIdEbCA4u+lBm0LiOMtm910kzRExG2RNpIAaztdn+VdZV1BxIEAqKqQWnVjRERCRJzXWp503VcZ4iY1ShNd6pt5YcA6ZiqAPRBxToP9K3NE8bVPMyPmvtqHAyAEGk08uPz0VKkqxzcKKPes2YYtZ9vGlocvc/jmVo84DCns/vH/JN4dOOPMelptwG5qVby99YX5bPjFNL73jx8fA3sruSpLPDWXn9/WmMK7FMkT);strokeColor=#000000;spacingTop=-3;spacingBottom=-3;spacingLeft=-3;spacingRight=-3;points=[];labelBackgroundColor=none;rounded=0;html=1;whiteSpace=wrap;" parent="1" vertex="1">
            <mxGeometry x="490" y="502" width="138" height="34" as="geometry" />
          </mxCell>
        </UserObject>
        <UserObject label="&lt;div style=&quot;font-size: 1px&quot;&gt;&lt;p style=&quot;text-align:center;margin-left:0;margin-right:0;margin-top:0px;margin-bottom:0px;text-indent:0;vertical-align:middle;direction:ltr;&quot;&gt;&lt;font style=&quot;font-size:14px;font-family:0;color:#000000;direction:ltr;letter-spacing:0px;line-height:120%;opacity:1&quot;&gt;发货退货管理&lt;/font&gt;&lt;/p&gt;&lt;/div&gt;" tags="Background" id="70">
          <mxCell style="verticalAlign=middle;align=center;overflow=width;vsdxID=69;fillColor=#FFFFFF;gradientColor=none;shape=stencil(lVJBEoIwDHxNr502dQTOiP9ghiIdEbCA4u+lBm0LiOMtm910kzRExG2RNpIAaztdn+VdZV1BxIEAqKqQWnVjRERCRJzXWp503VcZ4iY1ShNd6pt5YcA6ZiqAPRBxToP9K3NE8bVPMyPmvtqHAyAEGk08uPz0VKkqxzcKKPes2YYtZ9vGlocvc/jmVo84DCns/vH/JN4dOOPMelptwG5qVby99YX5bPjFNL73jx8fA3sruSpLPDWXn9/WmMK7FMkT);strokeColor=#000000;spacingTop=-3;spacingBottom=-3;spacingLeft=-3;spacingRight=-3;points=[];labelBackgroundColor=none;rounded=0;html=1;whiteSpace=wrap;" parent="1" vertex="1">
            <mxGeometry x="490" y="544" width="138" height="34" as="geometry" />
          </mxCell>
        </UserObject>
        <UserObject label="&lt;div style=&quot;font-size: 1px&quot;&gt;&lt;p style=&quot;text-align:center;margin-left:0;margin-right:0;margin-top:0px;margin-bottom:0px;text-indent:0;vertical-align:middle;direction:ltr;&quot;&gt;&lt;font style=&quot;font-size:14px;font-family:0;color:#000000;direction:ltr;letter-spacing:0px;line-height:120%;opacity:1&quot;&gt;采购订单管理&lt;/font&gt;&lt;/p&gt;&lt;/div&gt;" tags="Background" id="71">
          <mxCell style="verticalAlign=middle;align=center;overflow=width;vsdxID=70;fillColor=#FFFFFF;gradientColor=none;shape=stencil(lVJBEoIwDHxNr502dQTOiP9ghiIdEbCA4u+lBm0LiOMtm910kzRExG2RNpIAaztdn+VdZV1BxIEAqKqQWnVjRERCRJzXWp503VcZ4iY1ShNd6pt5YcA6ZiqAPRBxToP9K3NE8bVPMyPmvtqHAyAEGk08uPz0VKkqxzcKKPes2YYtZ9vGlocvc/jmVo84DCns/vH/JN4dOOPMelptwG5qVby99YX5bPjFNL73jx8fA3sruSpLPDWXn9/WmMK7FMkT);strokeColor=#000000;spacingTop=-3;spacingBottom=-3;spacingLeft=-3;spacingRight=-3;points=[];labelBackgroundColor=none;rounded=0;html=1;whiteSpace=wrap;" parent="1" vertex="1">
            <mxGeometry x="490" y="586" width="138" height="34" as="geometry" />
          </mxCell>
        </UserObject>
        <UserObject label="&lt;div style=&quot;font-size: 1px&quot;&gt;&lt;p style=&quot;text-align:center;margin-left:0;margin-right:0;margin-top:0px;margin-bottom:0px;text-indent:0;vertical-align:middle;direction:ltr;&quot;&gt;&lt;font style=&quot;font-size:14px;font-family:0;color:#000000;direction:ltr;letter-spacing:0px;line-height:120%;opacity:1&quot;&gt;票据管理&lt;/font&gt;&lt;/p&gt;&lt;/div&gt;" tags="Background" id="72">
          <mxCell style="verticalAlign=middle;align=center;overflow=width;vsdxID=71;fillColor=#FFFFFF;gradientColor=none;shape=stencil(lVJBEoIwDHxNr502dQTOiP9ghiIdEbCA4u+lBm0LiOMtm910kzRExG2RNpIAaztdn+VdZV1BxIEAqKqQWnVjRERCRJzXWp503VcZ4iY1ShNd6pt5YcA6ZiqAPRBxToP9K3NE8bVPMyPmvtqHAyAEGk08uPz0VKkqxzcKKPes2YYtZ9vGlocvc/jmVo84DCns/vH/JN4dOOPMelptwG5qVby99YX5bPjFNL73jx8fA3sruSpLPDWXn9/WmMK7FMkT);strokeColor=#000000;spacingTop=-3;spacingBottom=-3;spacingLeft=-3;spacingRight=-3;points=[];labelBackgroundColor=none;rounded=0;html=1;whiteSpace=wrap;" parent="1" vertex="1">
            <mxGeometry x="490" y="628" width="138" height="34" as="geometry" />
          </mxCell>
        </UserObject>
        <UserObject label="&lt;div style=&quot;font-size: 1px&quot;&gt;&lt;p style=&quot;text-align:center;margin-left:0;margin-right:0;margin-top:0px;margin-bottom:0px;text-indent:0;vertical-align:middle;direction:ltr;&quot;&gt;&lt;font style=&quot;font-size:14px;font-family:0;color:#000000;direction:ltr;letter-spacing:0px;line-height:120%;opacity:1&quot;&gt;结算申请管理&lt;/font&gt;&lt;/p&gt;&lt;/div&gt;" tags="Background" id="73">
          <mxCell style="verticalAlign=middle;align=center;overflow=width;vsdxID=72;fillColor=#FFFFFF;gradientColor=none;shape=stencil(lVJBEoIwDHxNr502dQTOiP9ghiIdEbCA4u+lBm0LiOMtm910kzRExG2RNpIAaztdn+VdZV1BxIEAqKqQWnVjRERCRJzXWp503VcZ4iY1ShNd6pt5YcA6ZiqAPRBxToP9K3NE8bVPMyPmvtqHAyAEGk08uPz0VKkqxzcKKPes2YYtZ9vGlocvc/jmVo84DCns/vH/JN4dOOPMelptwG5qVby99YX5bPjFNL73jx8fA3sruSpLPDWXn9/WmMK7FMkT);strokeColor=#000000;spacingTop=-3;spacingBottom=-3;spacingLeft=-3;spacingRight=-3;points=[];labelBackgroundColor=none;rounded=0;html=1;whiteSpace=wrap;" parent="1" vertex="1">
            <mxGeometry x="684" y="421" width="138" height="34" as="geometry" />
          </mxCell>
        </UserObject>
        <UserObject label="&lt;div style=&quot;font-size: 1px&quot;&gt;&lt;p style=&quot;text-align:center;margin-left:0;margin-right:0;margin-top:0px;margin-bottom:0px;text-indent:0;vertical-align:middle;direction:ltr;&quot;&gt;&lt;font style=&quot;font-size:14px;font-family:0;color:#000000;direction:ltr;letter-spacing:0px;line-height:120%;opacity:1&quot;&gt;复核管理&lt;/font&gt;&lt;/p&gt;&lt;/div&gt;" tags="Background" id="74">
          <mxCell style="verticalAlign=middle;align=center;overflow=width;vsdxID=73;fillColor=#FFFFFF;gradientColor=none;shape=stencil(lVJBEoIwDHxNr502dQTOiP9ghiIdEbCA4u+lBm0LiOMtm910kzRExG2RNpIAaztdn+VdZV1BxIEAqKqQWnVjRERCRJzXWp503VcZ4iY1ShNd6pt5YcA6ZiqAPRBxToP9K3NE8bVPMyPmvtqHAyAEGk08uPz0VKkqxzcKKPes2YYtZ9vGlocvc/jmVo84DCns/vH/JN4dOOPMelptwG5qVby99YX5bPjFNL73jx8fA3sruSpLPDWXn9/WmMK7FMkT);strokeColor=#000000;spacingTop=-3;spacingBottom=-3;spacingLeft=-3;spacingRight=-3;points=[];labelBackgroundColor=none;rounded=0;html=1;whiteSpace=wrap;" parent="1" vertex="1">
            <mxGeometry x="684" y="463" width="138" height="34" as="geometry" />
          </mxCell>
        </UserObject>
        <UserObject label="&lt;div style=&quot;font-size: 1px&quot;&gt;&lt;p style=&quot;text-align:center;margin-left:0;margin-right:0;margin-top:0px;margin-bottom:0px;text-indent:0;vertical-align:middle;direction:ltr;&quot;&gt;&lt;font style=&quot;font-size:14px;font-family:0;color:#000000;direction:ltr;letter-spacing:0px;line-height:120%;opacity:1&quot;&gt;对账管理&lt;/font&gt;&lt;/p&gt;&lt;/div&gt;" tags="Background" id="75">
          <mxCell style="verticalAlign=middle;align=center;overflow=width;vsdxID=74;fillColor=#FFFFFF;gradientColor=none;shape=stencil(lVJBEoIwDHxNr502dQTOiP9ghiIdEbCA4u+lBm0LiOMtm910kzRExG2RNpIAaztdn+VdZV1BxIEAqKqQWnVjRERCRJzXWp503VcZ4iY1ShNd6pt5YcA6ZiqAPRBxToP9K3NE8bVPMyPmvtqHAyAEGk08uPz0VKkqxzcKKPes2YYtZ9vGlocvc/jmVo84DCns/vH/JN4dOOPMelptwG5qVby99YX5bPjFNL73jx8fA3sruSpLPDWXn9/WmMK7FMkT);strokeColor=#000000;spacingTop=-3;spacingBottom=-3;spacingLeft=-3;spacingRight=-3;points=[];labelBackgroundColor=none;rounded=0;html=1;whiteSpace=wrap;" parent="1" vertex="1">
            <mxGeometry x="684" y="504" width="138" height="34" as="geometry" />
          </mxCell>
        </UserObject>
        <UserObject label="&lt;div style=&quot;font-size: 1px&quot;&gt;&lt;p style=&quot;text-align:center;margin-left:0;margin-right:0;margin-top:0px;margin-bottom:0px;text-indent:0;vertical-align:middle;direction:ltr;&quot;&gt;&lt;font style=&quot;font-size:14px;font-family:0;color:#000000;direction:ltr;letter-spacing:0px;line-height:120%;opacity:1&quot;&gt;结算支付&lt;/font&gt;&lt;/p&gt;&lt;/div&gt;" tags="Background" id="76">
          <mxCell style="verticalAlign=middle;align=center;overflow=width;vsdxID=75;fillColor=#FFFFFF;gradientColor=none;shape=stencil(lVJBEoIwDHxNr502dQTOiP9ghiIdEbCA4u+lBm0LiOMtm910kzRExG2RNpIAaztdn+VdZV1BxIEAqKqQWnVjRERCRJzXWp503VcZ4iY1ShNd6pt5YcA6ZiqAPRBxToP9K3NE8bVPMyPmvtqHAyAEGk08uPz0VKkqxzcKKPes2YYtZ9vGlocvc/jmVo84DCns/vH/JN4dOOPMelptwG5qVby99YX5bPjFNL73jx8fA3sruSpLPDWXn9/WmMK7FMkT);strokeColor=#000000;spacingTop=-3;spacingBottom=-3;spacingLeft=-3;spacingRight=-3;points=[];labelBackgroundColor=none;rounded=0;html=1;whiteSpace=wrap;" parent="1" vertex="1">
            <mxGeometry x="684" y="545" width="138" height="34" as="geometry" />
          </mxCell>
        </UserObject>
        <UserObject label="&lt;div style=&quot;font-size: 1px&quot;&gt;&lt;p style=&quot;text-align:center;margin-left:0;margin-right:0;margin-top:0px;margin-bottom:0px;text-indent:0;vertical-align:middle;direction:ltr;&quot;&gt;&lt;font style=&quot;font-size:14px;font-family:0;color:#000000;direction:ltr;letter-spacing:0px;line-height:120%;opacity:1&quot;&gt;结算账户管理&lt;/font&gt;&lt;/p&gt;&lt;/div&gt;" tags="Background" id="77">
          <mxCell style="verticalAlign=middle;align=center;overflow=width;vsdxID=76;fillColor=#FFFFFF;gradientColor=none;shape=stencil(lVJBEoIwDHxNr502dQTOiP9ghiIdEbCA4u+lBm0LiOMtm910kzRExG2RNpIAaztdn+VdZV1BxIEAqKqQWnVjRERCRJzXWp503VcZ4iY1ShNd6pt5YcA6ZiqAPRBxToP9K3NE8bVPMyPmvtqHAyAEGk08uPz0VKkqxzcKKPes2YYtZ9vGlocvc/jmVo84DCns/vH/JN4dOOPMelptwG5qVby99YX5bPjFNL73jx8fA3sruSpLPDWXn9/WmMK7FMkT);strokeColor=#000000;spacingTop=-3;spacingBottom=-3;spacingLeft=-3;spacingRight=-3;points=[];labelBackgroundColor=none;rounded=0;html=1;whiteSpace=wrap;" parent="1" vertex="1">
            <mxGeometry x="684" y="587" width="138" height="34" as="geometry" />
          </mxCell>
        </UserObject>
        <UserObject label="&lt;div style=&quot;font-size: 1px&quot;&gt;&lt;p style=&quot;text-align:center;margin-left:0;margin-right:0;margin-top:0px;margin-bottom:0px;text-indent:0;vertical-align:middle;direction:ltr;&quot;&gt;&lt;font style=&quot;font-size:14px;font-family:0;color:#000000;direction:ltr;letter-spacing:0px;line-height:120%;opacity:1&quot;&gt;方案配置&lt;/font&gt;&lt;/p&gt;&lt;/div&gt;" tags="Background" id="78">
          <mxCell style="verticalAlign=middle;align=center;overflow=width;vsdxID=77;fillColor=#FFFFFF;gradientColor=none;shape=stencil(lVJBEoIwDHxNr502dQTOiP9ghiIdEbCA4u+lBm0LiOMtm910kzRExG2RNpIAaztdn+VdZV1BxIEAqKqQWnVjRERCRJzXWp503VcZ4iY1ShNd6pt5YcA6ZiqAPRBxToP9K3NE8bVPMyPmvtqHAyAEGk08uPz0VKkqxzcKKPes2YYtZ9vGlocvc/jmVo84DCns/vH/JN4dOOPMelptwG5qVby99YX5bPjFNL73jx8fA3sruSpLPDWXn9/WmMK7FMkT);strokeColor=#000000;spacingTop=-3;spacingBottom=-3;spacingLeft=-3;spacingRight=-3;points=[];labelBackgroundColor=none;rounded=0;html=1;whiteSpace=wrap;" parent="1" vertex="1">
            <mxGeometry x="684" y="628" width="138" height="34" as="geometry" />
          </mxCell>
        </UserObject>
        <UserObject label="&lt;div style=&quot;font-size: 1px&quot;&gt;&lt;p style=&quot;text-align:center;margin-left:0;margin-right:0;margin-top:0px;margin-bottom:0px;text-indent:0;vertical-align:middle;direction:ltr;&quot;&gt;&lt;font style=&quot;font-size:18px;font-family:0;color:#000000;direction:ltr;letter-spacing:0px;line-height:120%;opacity:1&quot;&gt;&lt;b&gt;交易管理&lt;br/&gt;&lt;/b&gt;&lt;/font&gt;&lt;/p&gt;&lt;/div&gt;" tags="Background" id="79">
          <mxCell style="verticalAlign=middle;align=center;overflow=width;vsdxID=78;fillColor=none;gradientColor=none;shape=stencil(nZBLDoAgDAVP0z3SIyjeg0SURgWD+Lu9EGL8xBW7N828Ji1gOWs5KeBs9s72aqPGa8AKOCejlSMfEqAALFvrVOfsYprEk4xmTKNd44Y99VhscHY8qU7iQOYhFixbvfhXzlZfYgj3hQG+54dReh2KEw==);strokeColor=none;strokeWidth=0;spacingTop=-3;spacingBottom=-3;spacingLeft=-3;spacingRight=-3;points=[];labelBackgroundColor=none;rounded=0;html=1;whiteSpace=wrap;" parent="1" vertex="1">
            <mxGeometry x="494" y="380" width="120" height="42" as="geometry" />
          </mxCell>
        </UserObject>
        <UserObject label="&lt;div style=&quot;font-size: 1px&quot;&gt;&lt;p style=&quot;text-align:center;margin-left:0;margin-right:0;margin-top:0px;margin-bottom:0px;text-indent:0;vertical-align:middle;direction:ltr;&quot;&gt;&lt;font style=&quot;font-size:18px;font-family:0;color:#000000;direction:ltr;letter-spacing:0px;line-height:120%;opacity:1&quot;&gt;&lt;b&gt;结算管理&lt;br/&gt;&lt;/b&gt;&lt;/font&gt;&lt;/p&gt;&lt;/div&gt;" tags="Background" id="80">
          <mxCell style="verticalAlign=middle;align=center;overflow=width;vsdxID=79;fillColor=none;gradientColor=none;shape=stencil(nZBLDoAgDAVP0z3SIyjeg0SURgWD+Lu9EGL8xBW7N828Ji1gOWs5KeBs9s72aqPGa8AKOCejlSMfEqAALFvrVOfsYprEk4xmTKNd44Y99VhscHY8qU7iQOYhFixbvfhXzlZfYgj3hQG+54dReh2KEw==);strokeColor=none;strokeWidth=0;spacingTop=-3;spacingBottom=-3;spacingLeft=-3;spacingRight=-3;points=[];labelBackgroundColor=none;rounded=0;html=1;whiteSpace=wrap;" parent="1" vertex="1">
            <mxGeometry x="683" y="381" width="114" height="44" as="geometry" />
          </mxCell>
        </UserObject>
        <UserObject label="&lt;div style=&quot;font-size: 1px&quot;&gt;&lt;p style=&quot;text-align:center;margin-left:0;margin-right:0;margin-top:0px;margin-bottom:0px;text-indent:0;vertical-align:middle;direction:ltr;&quot;&gt;&lt;font style=&quot;font-size:14px;font-family:0;color:#000000;direction:ltr;letter-spacing:0px;line-height:120%;opacity:1&quot;&gt;信息查询&lt;/font&gt;&lt;/p&gt;&lt;/div&gt;" tags="Background" id="81">
          <mxCell style="verticalAlign=middle;align=center;overflow=width;vsdxID=80;fillColor=#FFFFFF;gradientColor=none;shape=stencil(lVJBEoIwDHxNr502dQTOiP9ghiIdEbCA4u+lBm0LiOMtm910kzRExG2RNpIAaztdn+VdZV1BxIEAqKqQWnVjRERCRJzXWp503VcZ4iY1ShNd6pt5YcA6ZiqAPRBxToP9K3NE8bVPMyPmvtqHAyAEGk08uPz0VKkqxzcKKPes2YYtZ9vGlocvc/jmVo84DCns/vH/JN4dOOPMelptwG5qVby99YX5bPjFNL73jx8fA3sruSpLPDWXn9/WmMK7FMkT);strokeColor=#000000;spacingTop=-3;spacingBottom=-3;spacingLeft=-3;spacingRight=-3;points=[];labelBackgroundColor=none;rounded=0;html=1;whiteSpace=wrap;" parent="1" vertex="1">
            <mxGeometry x="99" y="463" width="138" height="34" as="geometry" />
          </mxCell>
        </UserObject>
        <UserObject label="&lt;div style=&quot;font-size: 1px&quot;&gt;&lt;p style=&quot;text-align:center;margin-left:0;margin-right:0;margin-top:0px;margin-bottom:0px;text-indent:0;vertical-align:middle;direction:ltr;&quot;&gt;&lt;font style=&quot;font-size:14px;font-family:0;color:#000000;direction:ltr;letter-spacing:0px;line-height:120%;opacity:1&quot;&gt;耗材资质库&lt;/font&gt;&lt;/p&gt;&lt;/div&gt;" tags="Background" id="82">
          <mxCell style="verticalAlign=middle;align=center;overflow=width;vsdxID=81;fillColor=#FFFFFF;gradientColor=none;shape=stencil(lVJBEoIwDHxNr502dQTOiP9ghiIdEbCA4u+lBm0LiOMtm910kzRExG2RNpIAaztdn+VdZV1BxIEAqKqQWnVjRERCRJzXWp503VcZ4iY1ShNd6pt5YcA6ZiqAPRBxToP9K3NE8bVPMyPmvtqHAyAEGk08uPz0VKkqxzcKKPes2YYtZ9vGlocvc/jmVo84DCns/vH/JN4dOOPMelptwG5qVby99YX5bPjFNL73jx8fA3sruSpLPDWXn9/WmMK7FMkT);strokeColor=#000000;spacingTop=-3;spacingBottom=-3;spacingLeft=-3;spacingRight=-3;points=[];labelBackgroundColor=none;rounded=0;html=1;whiteSpace=wrap;" parent="1" vertex="1">
            <mxGeometry x="99" y="628" width="138" height="34" as="geometry" />
          </mxCell>
        </UserObject>
        <UserObject label="&lt;div style=&quot;font-size: 1px&quot;&gt;&lt;p style=&quot;text-align:center;margin-left:0;margin-right:0;margin-top:0px;margin-bottom:0px;text-indent:0;vertical-align:middle;direction:ltr;&quot;&gt;&lt;font style=&quot;font-size:18px;font-family:0;color:#000000;direction:ltr;letter-spacing:0px;line-height:120%;opacity:1&quot;&gt;企业信息&lt;/font&gt;&lt;/p&gt;&lt;/div&gt;" tags="Background" id="83">
          <mxCell style="verticalAlign=middle;align=center;overflow=width;vsdxID=82;fillColor=#FFFFFF;gradientColor=none;shape=stencil(lZLbDoIwDIafZrfL6BDDNeJ7kDBkERmOg/j2MouyTbLEux6+7m+7Ep71ddEJAqwftLqKhyyHmvATAZBtLbQcFovwnPCsUlpctBrbEv2uMKSxbmoyL8xYx0wFsCd6KeXRO3BG9j4WpWEjF3bdGdAFGscrADawvtXI1tJNj/SQONosIByxsPSWh/1BXPENX2lGk/Qf+W/g04A9jtfTbgfWrnbp8OJ/5P3p/Xlc8fCfL8Z2LJVsGrw1O+8f1xLCw+T5Cw==);strokeColor=#000000;spacingTop=-3;spacingBottom=-3;spacingLeft=-3;spacingRight=-3;points=[];labelBackgroundColor=none;rounded=0;html=1;whiteSpace=wrap;" parent="1" vertex="1">
            <mxGeometry x="663" y="327" width="163" height="42" as="geometry" />
          </mxCell>
        </UserObject>
        <UserObject label="&lt;div style=&quot;font-size: 1px&quot;&gt;&lt;p style=&quot;text-align:center;margin-left:0;margin-right:0;margin-top:0px;margin-bottom:0px;text-indent:0;vertical-align:middle;direction:ltr;&quot;&gt;&lt;font style=&quot;font-size:14px;font-family:0;color:#000000;direction:ltr;letter-spacing:0px;line-height:120%;opacity:1&quot;&gt;药品和医用耗材&lt;/font&gt;&lt;font style=&quot;font-size:NaNpx;font-family:0;color:#000000;direction:ltr;letter-spacing:0px;line-height:120%;opacity:1&quot;&gt;采购单位&lt;/font&gt;&lt;font style=&quot;font-size:NaNpx;font-family:0;color:#000000;direction:ltr;letter-spacing:0px;line-height:120%;opacity:1&quot;&gt;同步管理&lt;/font&gt;&lt;/p&gt;&lt;/div&gt;" tags="Background" id="84">
          <mxCell style="verticalAlign=middle;align=center;overflow=width;vsdxID=83;fillColor=#FFFFFF;gradientColor=none;shape=stencil(lVLREoIgEPwaXhk4zOzZ9D+cEZPJxFDL/j4JU1DT6e32bo+9PQ6xsM6TiiMgdaPklT9F2uSInRGAKHOuRNNHiEWIhZlU/KJkW6YGV4lm6ugmH/qFzvQR3QHkZRCl2PM/mdiQ722SajJ12S7sYOjG7DgQwCYMbxWitIRPAfaZI042hCnZkR7r8MOJqz7xDQ4CfPD+0R8T3wlsP7Oh1ieYlrXK3t78Qn5mf+HHFd/59T6Y7iUTRWHOza7P76tPmdtk0Rs=);strokeColor=#000000;spacingTop=-3;spacingBottom=-3;spacingLeft=-3;spacingRight=-3;points=[];labelBackgroundColor=none;rounded=0;html=1;whiteSpace=wrap;" parent="1" vertex="1">
            <mxGeometry x="323" y="1062" width="290" height="34" as="geometry" />
          </mxCell>
        </UserObject>
      </root>
    </mxGraphModel>
  </diagram>
</mxfile>
